<svg id="Layer_1" data-name="Layer 1" xmlns="http://www.w3.org/2000/svg" viewBox="0 0 888.25 888.25"><defs><style>.cls-1{fill:#ff0126;}</style></defs><title>Apex</title><polygon class="cls-1" points="468.58 260.48 467.3 257.54 466.78 260.92 468.41 263.61 468.58 260.48"/><polygon class="cls-1" points="470.47 269.23 468.97 264.53 468.41 263.61 468.33 265.11 470.47 269.23"/><polygon class="cls-1" points="467.16 251.63 466.75 256.29 467.3 257.54 467.46 256.47 467.16 251.63"/><polygon class="cls-1" points="504.9 674.56 508.97 672.26 509.81 671.21 508.4 671.47 504.9 674.56"/><polygon class="cls-1" points="395.01 259.03 393.91 260.43 393.82 260.85 395.01 259.35 395.01 259.03"/><polygon class="cls-1" points="219.73 740.04 221.68 735.57 221.79 735.1 221.62 735.37 219.73 740.04"/><polygon class="cls-1" points="761.09 457.9 756.44 459.63 751.81 461.39 746.96 462.36 742.28 463.93 737.97 466.76 732.53 465.83 728.14 468.34 723.68 470.57 719.4 473.35 714.37 473.85 709.72 475.51 704.41 475.4 699.91 477.51 695.36 479.5 691.45 482.93 687.12 485.27 683.09 488.1 679.37 489.23 680.04 484.72 676.94 479.86 677.21 475.01 679.68 470.17 679.99 465.33 676.96 460.46 679.07 455.62 679.96 450.79 680.03 445.94 676.97 441.08 678.12 436.25 679.24 431.41 680.29 426.57 678.24 421.7 677.58 416.85 680.37 412.02 678.84 407.17 677.12 402.31 679.15 397.48 679.16 392.63 677.5 387.77 677.77 382.92 678.72 378.08 679.99 373.24 680.07 368.39 680.37 363.55 678.67 358.68 677.99 353.83 679.21 348.99 680.34 344.14 678.96 339.29 679.58 334.44 678.19 329.58 678.93 324.73 680.85 319.89 679.14 315.03 680.63 310.19 677.77 305.31 680.29 300.48 678.41 295.61 679.72 290.77 679.86 285.92 681.1 281.07 681.25 276.22 680 271.36 680.82 266.51 679.1 261.65 680.04 256.8 679.5 251.95 680.24 247.1 680.62 242.25 680.99 237.4 678.67 232.53 678.38 227.67 680.52 222.82 681.08 217.97 680.89 213.11 680.77 208.25 678.26 203.38 680.96 198.43 679.11 194.21 675.37 192.18 672.25 187.76 667.2 187.01 662.2 186.16 658.05 183.69 654.69 179.71 650.35 177.6 646.44 174.7 641.57 173.61 637.3 171.38 633.84 167.61 629.43 165.62 624.97 163.75 621.16 160.62 615.89 160.28 612.03 157.25 607.51 155.48 603.86 152.05 599.21 150.55 593.91 150.25 590.27 146.79 586.22 144.13 581.25 143.19 577.88 140.05 579.47 144.37 582.43 148.3 585.9 151.9 589.07 155.69 590.48 160.58 593.93 164.21 596.02 168.67 598.12 173.14 599.95 177.78 603.65 181.24 606.29 185.37 608.59 189.71 611.94 193.4 612.66 198.74 617.71 201.35 619.25 206.18 622.4 209.99 626.04 213.5 627.49 218.39 630.27 222.7 628.68 227.73 626.28 232.38 627.89 237.79 625.42 242.44 626.36 247.73 623.75 252.35 622.88 257.29 621.61 262.16 622.77 267.5 619.19 271.94 619.02 277.03 619 277.59 615.97 273.61 612.13 270.7 608.21 267.89 603.69 265.87 600.43 262.2 597.37 258.28 593.27 255.71 587.63 255.17 584.74 251.01 581.54 247.25 577.03 245.23 572.55 243.15 570.38 238.03 566.48 235.2 562.77 232.11 558.2 230.14 554.43 227.14 551.36 223.21 546.35 221.82 543.51 217.58 539.81 214.46 534.95 212.83 537.45 217.03 540.38 220.82 543 224.83 546.57 228.22 546.9 233.75 550.54 237.09 553.63 240.8 556.22 244.83 558.57 249.01 561.4 252.9 563.08 257.51 567.21 260.57 570.39 264.25 571.91 268.96 574.33 273.11 575.24 278.16 579.97 280.92 583.03 284.71 582.74 290.43 585.54 294.35 588.11 298.41 591.82 301.85 593.76 306.26 595.34 310.87 598.55 314.63 599.86 319.35 600.46 324.34 602.12 328.81 606.43 333.34 601.08 334.95 597.03 337.78 594.04 342.03 589.4 343.7 588.25 339.21 583.81 336.36 580.45 332.71 576.17 329.97 573.6 325.55 568.89 323.33 565.47 319.78 561.75 316.53 557.73 313.66 554.1 310.32 551.55 307.38 553.81 310.35 555.57 314.76 557.09 319.25 556.45 324.43 559.48 328.43 558.7 333.63 562.27 337.49 560.84 342.87 563.7 346.96 565.38 351.4 564.79 356.51 566.56 359.66 563.33 362.25 561.49 367.42 556.1 367.83 552.69 370.19 549.7 368.12 547.64 363.44 542.22 362.01 539.95 357.56 536.66 354.08 534.15 349.92 530.29 346.92 527.82 342.76 524.63 339.19 520.11 336.6 517.44 332.58 515.29 328.21 511.72 324.8 511.83 319.04 507.31 316.19 505.82 311.51 502.78 307.71 500.05 303.71 498.08 299.31 496.49 294.75 496.15 289.67 492.17 286.15 492.29 280.95 489.22 276.98 488.15 272.27 487.06 267.59 483.48 263.67 482.17 259.03 481.97 254.09 479.93 249.65 480.03 248.97 479.52 248.13 478.18 243.39 478.94 238.2 479.18 233.13 476.03 228.77 476.83 223.58 474.75 218.99 473.67 214.19 473.25 209.26 473.43 204.2 469.55 199.99 469.49 194.97 470.57 189.72 468.82 185.07 467 180.42 464.21 175.98 466.62 170.45 463.71 166.03 462.47 161.27 460.67 156.62 462.23 151.26 459.81 146.75 459.96 141.69 458.35 137.01 455.13 132.66 456.59 127.33 456.1 122.4 454.17 117.78 452.62 113.08 450.64 108.46 449.07 103.76 451 98.33 450.42 93.42 449.47 88.59 445.09 84.48 445.46 79.36 444.63 75.44 442.21 79 440.89 83.75 442.71 89.15 440.77 93.77 440.33 98.7 440.17 103.69 439.12 108.49 435.51 112.75 436.76 118.04 434.74 122.64 434.78 127.67 432.62 132.24 431.94 137.13 428.78 141.49 430.52 146.88 428.36 151.45 428.13 156.43 427.4 161.3 425.38 165.9 425.85 171.03 425.13 175.9 423.21 180.53 419.76 184.82 420.7 190.05 418.11 194.53 416.95 199.31 418.88 204.74 417.68 209.51 414.41 213.85 416 219.22 414.59 223.95 412.44 228.53 411.78 233.42 410.93 238.28 409.62 240.51 409.5 239.82 409.61 240.53 408.3 242.75 408.26 247.08 410.21 244.63 410.25 244.9 408.26 247.4 408.26 247.77 406.69 250.76 407.07 248.91 406.95 249.05 404.94 253.46 405.12 254.97 404.52 257.07 405.18 255.48 405.56 258.58 404.53 263.28 404.17 268.2 402.23 272.64 400.67 277.19 399.11 281.75 397.27 286.21 393.62 289.88 392.98 294.85 391.94 299.69 388.59 303.4 386.2 307.57 383.53 311.57 381.16 315.73 380.18 320.77 374.72 322.96 373.31 327.77 369.87 331.19 367.7 335.52 363.96 338.68 360.88 342.32 359.76 347.59 355.8 350.52 352.55 354.04 348.14 356.48 345.28 360.34 343.96 365.7 340.83 369.37 336.24 371.23 332.59 368.63 329.08 365.7 324.22 364.58 322.05 360.16 322.81 356.03 323.22 351.21 326.19 347.15 326.91 342.42 327.78 337.74 330.72 333.68 330.04 328.51 331.59 324.04 332.99 319.51 336.13 315.55 336.91 310.82 337.72 307.42 335.53 310.78 329.8 311.55 326.64 315.5 323.89 319.86 320.07 322.98 316.11 325.98 311.45 328.32 310.15 333.9 306.55 337.25 301.14 339.29 299.63 344.44 296.06 340.94 292.72 337.17 287.61 335.75 284.57 332 284.79 327.8 287.65 323.81 289.89 319.56 292.68 315.61 295.4 311.63 296.22 306.66 296.69 301.46 299.8 297.68 301.61 293.19 305.76 290.03 307.38 285.42 310.14 281.48 314.1 278.25 314.47 272.87 316.49 268.47 320.81 265.49 321.16 260.05 326.81 257.93 327.44 252.65 331.55 249.59 334.22 245.61 335.52 240.73 339.64 237.69 341.16 232.95 342.16 227.85 347.21 225.47 350.48 221.9 350.77 216.29 355.25 214.56 350.19 215.39 346.85 218.96 343.99 223.17 338.78 224.27 334.43 226.5 330.41 229.16 327.14 232.83 324.6 237.45 319.72 238.99 315.98 242.03 313.1 246.21 307.95 247.41 303.53 249.55 299.71 252.49 296.38 256.09 292.6 259.1 288.41 261.54 285.4 265.55 281.93 268.96 278.18 272 273.66 274.04 270.34 277.67 270.15 277.05 268.14 272.32 268.36 267.17 267.34 262.25 265.55 257.48 264.18 252.63 266.03 247.16 263.48 242.54 262.75 237.56 261.74 232.64 259.68 227.91 260.09 222.9 262.2 218.84 265.66 215.39 268.27 211.42 270.01 206.9 272.33 202.75 274.16 198.28 277.84 194.98 278.88 190.01 281.85 186.26 283.55 181.71 288.67 179.31 289 173.9 292.15 170.25 293.82 165.68 297.92 162.64 300.82 158.84 302.45 154.24 303.57 149.32 306.98 145.82 311.29 141.05 305.51 143.9 301.81 147.46 296.58 148.08 292.29 150.5 289.04 154.9 283.45 154.85 280.35 159.52 275.8 161.43 270.29 161.53 266.95 165.75 263 168.83 257.6 169.12 252.81 170.6 248.33 172.66 244.88 176.7 240.86 179.64 235.99 180.97 232.04 184.03 228.02 186.98 222.74 187.53 217.88 188.87 215.07 194.15 209.72 194 208.5 193.53 209.27 198.51 209.12 203.36 209 208.21 210.04 213.05 210.29 217.9 209.72 222.75 209.6 227.6 210.23 232.44 209.29 237.29 209.88 242.13 210.03 246.97 210.53 251.81 208.52 256.67 211.05 261.51 210.82 266.36 210.09 271.21 209.14 276.06 209.21 280.9 209.84 285.75 209.96 290.59 209.28 295.45 210.91 300.29 210.97 305.14 210.58 309.99 210.8 314.83 210.64 319.68 211.06 324.53 209.26 329.39 209.38 334.24 210.99 339.08 210.94 343.93 209.72 348.79 211.22 353.63 209.83 358.49 209.63 363.34 209.67 368.2 210.12 373.05 210.19 377.9 208.96 382.76 211.71 387.59 208.97 392.46 210.38 397.31 209.89 402.16 208.84 407.02 212.13 411.86 211.44 416.71 209.41 421.58 212.09 426.41 209.54 431.28 210.61 436.12 212.38 440.97 212.16 445.82 212.59 450.68 210.54 455.55 211.84 460.4 209.38 465.27 210.69 470.12 209.2 474.98 211.38 479.83 211.26 484.69 212.07 489.89 206.68 487.21 203.07 483.43 198.56 481.32 192.97 481.81 188.82 478.96 184.85 475.51 179.7 475.22 174.49 475.19 170.27 472.31 166.2 468.85 161.47 467.39 156.5 466.73 151.02 467.79 146.41 466.01 141.59 464.96 137.31 461.98 132.49 460.9 127.51 460.44 122.69 459.4 118.09 456.65 122.34 459.74 125.54 463.5 127.09 468.67 132.67 470.36 135.98 474.01 138.65 478.18 139.97 483.4 143.61 486.78 147.34 490.11 151.04 493.46 154.21 497.23 154.48 503.16 159.68 505.4 161.55 510.13 165.74 513.14 168.32 517.34 169.84 522.31 173.16 525.96 175.12 530.61 179.45 533.54 183.06 537 183.96 542.4 186.26 546.8 190.56 549.78 192.42 554.48 196.64 557.79 193.19 562 193.21 567.06 190.83 571.39 191.79 576.68 187.36 580.46 187.61 585.53 185.5 589.98 186.82 595.27 184.02 599.56 185.16 604.75 181.53 608.91 181.38 613.81 179.95 618.45 181.39 623.62 180.15 628.28 179.64 633.08 178.68 637.79 177.24 642.45 176.97 647.28 173.78 651.71 173.74 656.58 173.14 661.38 173.7 666.3 171.92 670.97 171.24 675.76 170.61 680.55 171.22 685.47 170.86 691.59 171.76 685.15 176.73 682.29 176.77 676.77 181.84 673.98 181.41 668.21 184.22 664.19 186.84 660.07 191.09 656.84 193.27 652.48 195.16 647.96 196.51 643.14 198.03 638.41 202.39 635.25 203.72 630.41 206.25 626.23 206.93 621.02 211.44 617.96 213.81 613.7 215.06 608.79 219.23 605.54 219.74 600.22 222.87 595.91 224.06 601.16 229.53 602.95 229.98 608.19 234.09 610.92 236.81 614.6 237.13 619.91 240.09 623.42 242.7 627.27 245.92 630.85 249.93 633.71 252.09 638.15 254.92 642.04 257.9 644.99 256.85 649.12 256.11 653.98 253.18 658.13 254.01 663.48 251.21 667.68 249.39 672.19 249.29 677.24 245.97 681.29 246.41 686.51 244.44 690.98 244.12 695.97 242 700.39 241.26 705.24 237.51 709.15 236.21 713.83 236.07 718.88 235.04 723.15 237.66 719.35 242.6 716.95 246.15 713.51 248.55 709.14 252.49 706.06 254.19 701.04 257.23 697.17 260.2 693.21 264.5 690.52 267.25 686.33 271.53 683.67 273.75 678.83 277.75 675.88 282.21 673.52 285.32 669.5 289.91 667.41 294.31 665.14 298.94 663.32 302.11 659.04 306.2 656.16 311.31 655.41 316.13 654.32 320.03 650.31 325.45 651.62 330.02 649.09 334.99 648.48 339.84 651.25 345.11 648.54 349.62 651.33 354.43 652.49 358.06 656.21 362.7 657.82 367.62 659.55 370.23 663.99 368.64 659.17 364.52 656.16 361.35 652.47 360.29 647.32 356.01 644.39 352.56 640.88 352.25 635.25 349.32 631.39 345.69 627.99 341.64 624.84 341.44 619.21 336.41 616.67 334.17 612.35 332.5 607.68 329.32 603.95 328.02 599.07 326.02 594.64 323.85 590.3 321.58 586.03 317.02 583.05 315.99 578.08 312.56 574.43 312.2 569.14 309.01 565.34 305.66 561.6 303.44 557.28 303.76 551.77 301.72 547.4 299.36 543.17 295.73 539.44 294.89 534.56 291.8 530.51 292.67 525.11 288.92 521.18 287.84 516.41 289.34 511.15 288.65 506.45 286.09 501.86 287.42 497.04 285.64 491.93 288.14 487.45 289.45 482.5 289.49 482.56 293.73 479.59 294.99 474.66 299.36 471.84 300.82 467.01 305.15 464.22 306.75 459.46 308.52 454.78 312.46 451.75 314.86 447.52 317.76 443.69 321.12 440.22 324.2 436.54 328.8 434.14 329.86 428.72 334.89 426.75 338.08 423.19 339.54 418.04 344.87 416.43 347.98 412.79 351.25 409.3 353.17 404.49 357.6 402.14 361.26 399.05 362.73 393.68 367.39 390.57 371.37 394.23 373.06 398.58 373.4 403.11 374.55 407.3 373.02 411.55 372.53 416.03 371.4 420.38 371.74 425.05 368.81 429.57 371.82 433.92 374.2 438.07 376.34 442.34 381.24 445.06 382.69 449.73 384.04 454.45 385.57 459.08 389.3 462.47 390.88 467.06 394.68 470.41 395.52 475.43 399.25 478.82 401.74 482.91 403.67 487.31 406.82 491.02 406.56 496.67 409.95 500.25 413.07 504 416.54 507.97 416.6 513.15 414.96 518.07 415.25 522.87 415.9 527.64 415.57 532.48 415.38 537.31 415.91 542.1 417.4 546.82 416.82 551.68 418.48 556.4 417.87 561.25 419.39 565.98 420.3 570.74 418.46 575.67 419.98 580.4 420.04 585.22 418.1 590.16 420.1 594.85 420.2 599.67 420.85 604.45 421.3 609.24 422.18 614.01 422.04 618.84 421.54 623.69 422.96 628.42 422.45 633.27 422.76 638.07 424.66 642.77 422.07 647.76 422.7 652.54 423.85 657.29 425.51 662.02 424.43 666.91 425.13 671.69 425.3 676.5 423.99 681.41 427.05 686.05 424.46 691.04 425.88 695.81 426.98 700.52 428.71 705.12 428.91 709.96 429.46 714.73 429.16 719.64 429.14 724.51 430.73 729.13 433.92 733.5 434.04 738.35 433 743.36 435.59 747.83 436.93 752.48 435.45 757.57 436.28 762.31 435.76 767.25 437.52 771.85 437.98 776.64 439.16 781.33 441.92 785.77 440.33 790.88 441.75 795.53 444.15 800.02 443.18 805.04 442.81 809.98 444.66 812.8 443.8 809.58 444.93 804.9 446.22 800.23 446.69 795.44 448.11 790.79 450.3 786.27 448 781.05 449.18 776.37 449.7 771.58 451.33 766.98 452.29 762.26 452.34 757.41 455.31 753 456.23 748.28 456.37 743.44 455.8 738.49 455.37 733.56 459.26 729.29 460.08 724.54 460.23 719.71 459.47 714.72 459.46 709.85 462 705.37 462.64 700.59 461.47 695.6 462.8 690.93 463.84 686.18 464.58 681.41 465.29 676.64 464.85 671.79 464.36 666.94 464.9 662.16 465.24 657.36 464.51 652.5 465.87 647.76 466.86 643 467.21 638.21 466.98 633.38 467.52 628.59 466.32 623.7 467.77 618.96 469.47 614.25 469.78 609.45 467.19 604.47 467.96 599.69 470.87 595.05 468.15 590.06 469.96 585.35 470.86 580.59 471.18 575.79 471.93 571.02 471.2 566.15 471.2 561.33 471.05 556.5 470.3 551.63 472.39 546.94 472.7 542.13 472.91 537.32 473.15 532.51 472.56 527.65 475.16 522.98 475.47 518.17 474.91 513.31 472.97 508.04 476.37 504.1 478.35 499.74 482.35 496.51 483.5 491.67 485.52 487.33 489.94 484.34 489.76 478.75 492.73 474.93 496.34 471.48 497.43 466.6 498.9 461.94 501.48 457.9 503.67 453.64 508.06 450.63 508.71 445.5 511.02 441.31 513.43 437.18 515.43 432.8 520.41 429.56 519.41 424.67 515.52 420.89 517.85 415.82 516.11 411.59 514.41 407.35 515.18 402.95 517.99 399.41 518.31 394.53 521.79 393.43 525.83 394.44 529.85 397.19 533.47 400.37 536.84 403.8 540.14 407.29 542.42 411.75 545.69 415.26 548.15 419.5 551.01 423.37 554.55 426.62 558.93 429.15 560.94 433.75 564.41 437.07 568.54 439.88 571.03 444.04 572.4 449.08 577.11 451.48 579.03 456.06 582.08 459.76 586.34 462.58 587.79 467.46 590.21 471.62 593.87 474.93 596.63 478.87 600.08 482.37 597.69 483.93 602.57 486.92 601.4 492.34 604.14 496.94 603.77 501.9 603.54 506.83 602.01 511.55 598.7 515.76 599.42 520.91 597.86 525.5 594.9 529.59 595.03 534.78 594.51 539.8 592.36 544.18 587.56 547.37 588.52 553.12 585.52 557.08 582.75 561.13 579.42 564.86 578.73 569.95 577.28 574.68 573.37 578.07 572.55 583.16 570.43 587.53 568.06 591.78 565.76 596.06 560.72 598.71 558.84 603.23 556.63 607.56 554.77 612.11 553.23 616.88 550.45 620.88 547.66 624.86 543.2 627.73 541.69 632.54 539.36 636.81 536.21 640.54 532.57 643.92 530.85 648.62 528.02 652.55 525.22 656.51 523.05 659.26 527.06 658.51 529.74 653.38 535.18 653.26 539.22 649.63 544.33 649.37 549.38 649.94 554.29 649.09 559.09 650.69 563.94 651.2 568.83 651.87 573 654.82 577.37 656.87 582.85 656.65 587.26 658.9 591.07 662.14 596.16 663.36 600.03 666.49 603.92 669.56 606.18 674.6 610.55 677.01 614.41 680.05 618.66 682.72 620.48 687.88 625.22 690.09 627.73 694.47 630.35 698.71 634.3 701.74 637.13 705.77 640.28 709.51 643.32 713.34 647.77 716.09 649.76 720.75 652.25 725.02 657.44 727.93 653.97 723.76 654.9 718.38 652.44 714.07 651.83 709.18 650.67 704.46 646.78 700.6 647.82 695.19 645.05 690.97 644.63 686.02 641.71 681.85 639.43 677.48 640.29 672.12 638.26 667.67 637.63 662.78 633.3 659.05 633.9 653.77 633.33 648.85 630.18 644.75 633.79 641.57 635.68 636.89 640.11 634.39 641.53 629.29 644.67 625.73 649.31 623.5 651.42 619.41 653.16 615.08 654.64 610.55 657.48 606.96 660.95 603.79 663.28 599.83 666.31 597.17 668.61 600.74 671.21 604.87 674.59 608.57 675.86 613.45 676.82 618.5 681.67 621.37 681.93 626.82 686.56 629.83 688.07 634.58 690.84 638.62 692.39 643.35 693.68 648.2 697.02 651.93 698.49 656.68 702.09 660.27 703.58 665.01 706.98 668.7 708.57 673.38 710.06 678.12 714.82 681.08 716.98 685.45 718.36 690.29 717.13 685.55 717.5 680.68 715.88 675.99 715.33 671.2 717.39 666.12 716 661.41 713.82 656.81 713.02 652.05 714.42 646.99 714.59 642.08 713.49 637.35 710.01 633.02 710.62 628.03 711.13 623.03 708.39 618.63 706.98 613.99 708.45 608.76 705.71 604.4 706.03 599.38 703.03 595.12 701.98 590.42 703.12 585.15 701.76 580.5 699.78 576.03 696.68 571.91 695.43 567.25 696.38 561.9 691.61 557.64 697.46 554.9 697.84 549.15 701.69 545.87 705.4 542.49 708.35 538.57 709.9 533.64 713.84 530.41 716.08 525.97 719.11 522.09 721.57 517.8 724.11 513.57 727.3 509.82 730.79 506.3 734.54 502.97 737.44 499.01 738.02 493.29 743.32 491.16 745.28 486.47 748.58 482.81 752.28 479.48 754.76 475.18 757.35 470.95 759.65 466.44 763.05 462.86 766.4 459.19 770.15 458.08 766.19 457.9 761.09 457.9"/></svg>