<svg id="Layer_1" data-name="Layer 1" xmlns="http://www.w3.org/2000/svg" viewBox="0 0 888.25 888.25"><defs><style>.cls-1{fill:#f7008d;}</style></defs><title>Corrupted</title><polygon class="cls-1" points="533.2 699.92 528.49 700.98 523.85 702.32 519.19 703.61 514.47 704.66 509.62 705.02 504.96 706.37 500.22 707.29 495.43 707.96 490.63 708.49 485.85 709.13 481.06 709.69 476.28 710.43 471.44 710.52 466.67 711.43 461.83 711.46 457.01 711.91 452.16 711.28 447.35 712.08 442.52 712.01 437.69 711.69 432.87 711.47 428.06 711.11 423.21 711.32 418.41 710.78 413.58 710.59 408.81 709.84 404 709.41 399.17 709.1 394.49 707.72 389.59 707.8 384.93 706.41 380.07 706.1 375.35 705.04 370.63 704.02 365.96 702.77 361.31 701.45 356.62 700.28 351.97 698.96 347.26 697.37 349.26 701.82 352.07 705.77 354.43 709.96 356.68 714.22 358.77 718.56 361.13 722.76 363.43 726.99 365.23 731.49 367.86 735.55 370.07 739.83 372.61 743.93 374.56 748.36 377.2 752.42 378.75 757.05 381.5 761.05 383.9 765.23 386.25 769.44 388.21 773.88 390.35 778.25 395.36 779.04 400.26 779.85 405.28 779.64 410.19 780.31 415.11 781.01 420.02 781.79 425 781.75 429.94 782.35 434.91 782.09 439.88 781.89 444.83 781.8 449.79 781.95 454.75 781.99 459.7 781.86 464.69 782.26 469.64 781.87 474.53 780.75 479.46 780.29 484.46 780.45 489.39 779.86 494.32 779.34 499.02 778.16 501.46 774.03 503.65 769.72 505.77 765.37 508.43 761.31 510.96 757.17 512.8 752.68 515.28 748.51 517.25 744.08 519.97 740.05 522.22 735.76 524.5 731.49 526.58 727.11 528.64 722.72 531.3 718.66 533.12 714.13 535.43 709.88 538.28 705.91 540.44 701.55 542.88 697.21 537.94 698.93 533.2 699.92"/><polygon class="cls-1" points="795.5 473.33 795.68 468.47 794.9 463.6 795.36 458.73 795.7 453.86 794.66 448.99 795.16 444.12 794.92 439.25 794.78 434.38 794.75 429.5 795.64 424.63 795.33 419.72 793.2 424.31 792.39 429.23 790.98 433.96 789.39 438.64 787.55 443.23 786 447.92 784.33 452.57 782.02 456.97 780.66 461.74 778.74 466.29 777.18 470.99 774.87 475.37 773.31 480.08 770.43 484.28 769.94 489.13 769.02 493.85 768.04 498.56 766.56 503.17 765.28 507.81 764.17 512.49 762.89 517.14 762.67 522.03 761.41 526.67 760.04 531.3 758.5 535.89 757.8 540.66 756.34 545.27 755.73 550.07 754.99 554.84 754.04 559.56 752.77 564.21 751.54 568.87 750.42 573.55 748.66 578.08 747.67 582.79 747.42 587.67 746.37 592.38 744.56 596.9 743.5 601.6 742.28 606.26 741.81 611.1 740.49 615.74 739.5 620.45 738.61 625.19 737.04 629.78 735.63 634.44 735.58 639.24 738.46 635.61 741.41 631.64 744.13 627.5 746.46 623.08 750.14 619.62 752.89 615.5 754.97 610.94 757.88 606.94 760.64 602.83 763.21 598.6 765.22 594.04 768.47 590.21 770.28 585.55 772.89 581.34 775.27 577 777.51 572.59 779.08 567.85 781.31 563.44 784.26 559.36 785.84 554.64 787.85 550.12 789.46 545.43 791.92 541.09 793.49 536.39 795.6 531.77 795.68 526.86 795.6 522 794.81 517.13 795.65 512.26 795.27 507.39 794.74 502.53 795.56 497.66 795.47 492.8 794.85 487.93 794.84 483.07 794.86 478.2 795.5 473.33"/><polygon class="cls-1" points="341.38 760.27 339.86 755.49 337.51 751.14 334.58 747.11 332.48 742.64 330.28 738.21 327.96 733.86 325.18 729.74 323.56 725.01 320.7 720.93 318.6 716.45 316.34 712.05 314.01 707.7 311.15 703.62 308.9 699.22 307.31 694.46 304.6 690.3 302.3 685.92 299.71 681.69 297.85 677.01 293.34 674.94 289.21 672.43 285.01 670.07 280.78 667.77 276.26 665.94 272.51 662.83 268.23 660.58 263.92 658.36 260.28 655.12 256.25 652.47 251.99 650.15 248.07 647.33 244.2 644.45 240.7 641.08 237.01 637.98 232.83 635.48 229.37 632.09 225.9 628.75 221.67 626.25 218.37 622.7 214.68 619.59 211.1 616.35 207.61 613.01 204.75 609.05 201.18 605.8 198.08 602.09 194.35 598.98 191.02 595.49 187.84 591.86 184.83 588.08 181.64 584.46 178.55 580.76 175.78 576.88 176.8 581.54 177.98 586.19 178.87 590.91 180.37 595.48 180.95 600.27 181.96 604.96 183.16 609.61 184.72 614.17 184.95 619.03 186.6 623.58 187.95 628.18 188.74 632.92 189.26 637.72 191.13 642.22 192.24 646.88 193.43 651.53 193.86 656.36 195.18 660.98 196.63 665.57 197.63 670.26 198.32 675.03 199.77 679.62 200.64 684.36 201.75 689.02 205.23 692.4 209.08 695.45 212.85 698.58 216.55 701.81 220.2 705.1 224.38 707.72 228.43 710.47 231.97 713.94 236.25 716.39 240.2 719.3 244.35 721.92 248.28 724.86 252.45 727.45 256.63 730.02 260.83 732.56 265.06 735.04 269.38 737.38 273.97 739.2 278.17 741.73 282.53 743.98 286.95 746.1 291.49 747.96 295.8 750.32 300.3 752.27 304.93 753.89 309.24 756.31 313.77 758.17 318.57 759.35 323.09 761.26 327.8 762.63 332.23 764.85 337.15 765.57 341.58 767.84 346.79 768.72 344.23 764.36 341.38 760.27"/><polygon class="cls-1" points="152.16 629.06 151.29 624.27 149.69 619.64 149.19 614.76 148.17 610 146.94 605.29 145.28 600.68 145.18 595.71 143.41 591.12 142 586.45 141.25 581.63 140.8 576.73 138.79 572.2 137.65 567.47 136.42 562.75 136.09 557.83 134.72 553.15 133.18 548.51 132.19 543.75 131.54 538.9 130.02 534.26 129.17 529.45 128.04 524.72 127.23 519.9 125.92 515.21 124.8 510.46 123.9 505.67 123.16 500.84 121.52 496.22 120.16 491.53 119.88 486.58 118.23 481.96 116.43 477.45 114.34 473.06 112.79 468.44 110.9 463.98 109.09 459.47 107.37 454.93 105.67 450.38 103.91 445.86 101.61 441.52 100.33 436.82 98.81 432.21 97.24 427.61 95.47 423.07 94.43 418.31 92.73 413.59 92.82 418.53 92.61 423.43 93.64 428.33 92.65 433.23 93.08 438.13 92.68 443.03 92.97 447.93 92.75 452.82 92.55 457.72 93.25 462.62 93.34 467.52 93.33 472.41 92.92 477.31 93.62 482.21 93.51 487.11 92.88 492.01 92.7 496.92 93.1 501.82 93.51 506.72 93.35 511.62 93.08 516.53 92.68 521.44 93.59 526.3 95.24 530.69 95.98 535.55 98.06 539.92 99.52 544.53 101.44 548.95 103.56 553.28 105.63 557.64 107.91 561.89 110.1 566.18 112.04 570.59 114.25 574.86 116.75 578.99 118.94 583.27 121.06 587.6 122.92 592.08 125.63 596.08 128.59 599.92 130.86 604.17 133.74 608.04 135.97 612.33 138.21 616.62 141.6 620.14 144.28 624.14 147.13 628.01 149.7 632.11 152.2 636.25 154.4 638.51 153.37 633.78 152.16 629.06"/><polygon class="cls-1" points="707.98 585.46 704.62 589.04 701.64 592.94 698.09 596.34 694.47 599.65 691.62 603.7 688.16 607.17 684.75 610.69 681.05 613.91 677.23 617 674 620.71 670.34 623.97 666.74 627.29 662.9 630.33 659.43 633.82 655.26 636.46 651.94 639.87 648.27 642.87 644.28 645.43 640.4 648.13 636.87 651.33 632.68 653.58 629.08 656.7 625.11 659.28 621.06 661.75 616.63 663.56 612.9 666.53 608.47 668.31 604.74 671.33 600.22 672.91 596.26 675.54 591.75 677.36 589.9 682 587.15 686.12 585.08 690.6 582.49 694.79 580.21 699.15 578.45 703.78 576.16 708.14 573.66 712.39 570.8 716.44 569.16 721.14 566.63 725.38 564.08 729.6 561.71 733.92 559.59 738.37 557.34 742.76 554.81 746.99 552.36 751.27 550.44 755.83 548.27 760.26 545.47 764.36 542.92 768.74 547.91 767.05 552.59 765.6 557.33 764.35 561.98 762.81 566.58 761.12 571.22 759.54 575.85 757.94 580.58 756.57 585.04 754.51 589.28 751.96 593.77 750.02 598.57 748.7 602.83 746.26 607.05 743.74 611.59 741.85 616.13 739.95 620.15 737.08 624.37 734.58 628.74 732.36 633.12 730.12 637.25 727.48 641.5 725.02 645.13 721.61 649.67 719.58 653.5 716.5 657.7 713.94 661.51 710.85 665.55 708.06 669.55 705.21 673.02 701.69 676.78 698.55 680.55 695.42 684.5 692.5 687.67 688.99 688.82 684.43 690.41 679.91 691.64 675.3 692.38 670.58 693.12 665.85 694.33 661.24 695.62 656.65 697.03 652.08 697.35 647.26 698.4 642.62 700.33 638.17 701.13 633.46 702.52 628.89 703.54 624.23 704.44 619.55 705.42 614.88 706.25 610.18 707.22 605.5 708.46 600.9 709.49 596.24 710.3 591.53 711.45 586.89 712.72 582.28 714.29 577.65 710.74 581.38 707.98 585.46"/><path class="cls-1" d="M738.37,427.84l0-5.09,1.75-4.53,2.25-4.42-.75-5.2.75-4.78,2.49-4.4,1.86-4.57-1.39-5.2,1.25-4.68,2-4.58.07-4.89,2-4.65L751,366l-.15-4.89-.89-4.92-.09-4.85,2-4.76-2-4.89,2.62-4.83L752,332l-2.17-4.79,1.38-4.9.2-4.88-2.54-4.66,2.16-5.06-2.42-4.62.25-4.91-1.31-4.7-.64-4.8-.84-4.77-.87-4.76-1.51-4.63-1.24-4.67-.1-5-.77-4.82-.81-4.83-3.86-3.89.52-5.26-2.4-4.3-2.68-4.18-1.74-4.5.2-5.3L727.45,224l-1-4.86-2-4.41-1.88-4.48-1.69-4.59-3.35-3.73-3.07-3.84-2.9-3.9-1.82-4.53-1.48-4.77-2.76-4-2.33-4.27-2.2-4.38L698,168.33l-4.17-3-3.7-3.25-2.56-4.22-3.07-3.82-1.68-5-5-2.19-2.69-4.18-2.47-4.44-4.09-2.89-3.06-3.9-3.7-3.26-4-2.92L654,122.2l-4.25-2.58-2-5.33-4.4-2.41-3.84-3.09-4.25-2.59-3.7,2.4,5.68,2.92,1.71,5.09,3.93,2.88,3.82,3,4,2.87,1.52,5.08,3.51,3.33,4.31,2.7,2,4.58,1.72,4.74,3.62,3.29,3.61,3.33,3.35,3.54.8,5.28,3.1,3.71,2.89,3.86,2.43,4.16,3.38,3.61,1.5,4.68,2.6,4.07,1.44,4.68,4.2,3.28,1.73,4.54,2,4.38.51,5.05,2.15,4.31,1.7,4.5,1,4.75,2.11,4.34,2.85,4.12v5.06l.86,4.76,2.7,4.22.1,4.95,1.54,4.57.66,4.78,2.88,4.36-1.21,5.24,3.23,4.35.81,4.83.51,4.88-.59,5,.49,4.85.7,4.83.47,4.86,1.41,4.81.78,4.87-2.29,5,1.85,4.87-2.08,4.86.73,4.89L725,335l.83,5-1.23,4.82-1.48,4.76-.2,4.89-1.53,4.72-1,4.78,0,4.94-1,4.78-1.19,4.73-1.11,4.75L716,387.88l-1.79,4.57-1,4.76-1.45,4.64.69,5.33-2.26,4.41-.91,4.87-1.64,4.62-2.92,4.11-3,4.05.53,5.54-2.37,4.31-3.43,3.79-.52,5.19-3.32,3.8-2.53,4.18L687,459.93l-1.28,4.89-3.32,3.7-1.29,5-3.82,3.35-2.42,4.25-3.19,3.72-1.82,4.72-4.26,2.9-1.18,5.29-4.78,2.41-2,4.72-4.36,2.67-2.94,3.92-3.54,3.37-3.47,3.55-.6.87-.75.57,1.13-1.61,2.47-4,2-4.36,2.16-4.31,1.43-4.62,1.69-4.51,2.15-4.34,1-4.75,2-4.43,1.57-4.57,1.49-4.61.62-4.81.71-4.78,1.36-4.65.47-4.81.48-4.8.6-4.78.9-4.75-.31-4.86.5-4.79-.34-4.82,1.2-4.81-.86-4.81,1-4.87-1.2-4.76.52-4.9L665.05,397l-.52-4.79-1.4-4.65.13-4.92-.56-4.81-2.26-4.53-.41-4.95-1.37-4.72-2-4.52-1.21-4.76-.88-4.9-1.85-4.57-2.18-4.42-1.44-4.74-3.43-3.83-1.89-4.53L642,322.76l-2.89-4-2.2-4.4-2.49-4.23L631.76,306l-3.16-3.79L626,298.07l-2.43-4.31-2.89-4-3.6-3.41-2.62-4.24-3.69-3.3-3.53-3.43-3.15-3.81-3.94-3-3.66-3.27-4-2.93-4.08-2.76-2.92-4.23-4.68-1.95-3.68-3.3-4.35-2.33-3.68-3.37-4.36-2.31-4.6-1.83-3.83-2.47-3.87-2.41-4.07-2.08-5.24-1.09-5-1.76-4.62-2.62-5.15-1.2-4.75-2.39L518.51,223l-.38,1.1,4.77,1.3L527,228l4.23,2.42,4.25,2.36,4.08,2.66,4.17,2.51,4,2.84,4.5,2.06,3.28,3.77,4.73,1.84,3.93,2.92,3.43,3.51,3.21,3.73,3.44,3.44,4,2.86,2.74,4.13,3.79,3.13,2.53,4.26,3.14,3.7,3.07,3.76,4.1,3,2.47,4.25,3.36,3.61,2.44,4.25,2,4.48,2.91,3.94,2.92,4,2.29,4.32.75,5.09,2.89,4,2.43,4.26,1.79,4.54,1.41,4.69,2.61,4.24.2,5.09,1.33,4.68,2.13,4.45,1.28,4.7,1.26,4.72.59,4.86.8,4.81,1.35,4.72.54,4.85.2,4.88,1.25,4.8-1.28,5,1.54,4.82.22,4.89-1.49,4.85,1.28,4.94-.85,4.85-1.57,4.73-.56,4.83-.65,4.81.57,5.07-2.23,4.53-.32,4.95-1.9,4.58-.43,5-1.62,4.64-2.43,4.35-1.37,4.7-.61,5-2.06,4.47-2.36,4.33-3.06,4-1.12,4.93L614,503.51l-3.17,3.82-2.85,4L606.27,516l-2.56,4.2-3.91,3.21-2.23,4.46-3,3.9-4.25,2.8-2.19,4.62-4.43,2.53-2.35,4.59-4.06,2.85-3.08,3.91L569.37,555l-3,4-3.88,3L557.88,564l-3.16,4L550.08,570l-4.19,2.53-4.33,2.28-4.45,2-4.22,2.46-4.37,2.17-4.44,2L519.84,586l-4.75,1.31-4.37,2.28L506,590.78,501.51,593l-4.65,1.63-5.15-.38L487,595.33,482.3,597l-4.92.26-4.78,1-2.22.58-2.63-.1-2.08.69-2.77.18-4.9.19-4.89.26-3.75-.09-1.16-.2-4.89-.16-1.38.37-3.53-.08-4.9-.24h-.27l-4.55-1.19-1.82.26-3.14-.59-5.07.09-2.43-.39-2.12-.54-.7.08-4.65-.8L404,595.05l-4.83-1.33-5-.81-4.76-1.61-4.63-1.95-4.87-1-3.91-3.3-5-.69-4.52-1.9-3.75-3.42-5-.92-4-2.81L350,571.92l-4.16-2.52-4.12-2.58-4.86-1.57-3.22-3.89L329.27,559,326,555.31l-4.3-2.49-3.49-3.43-2.89-4-3.65-3.23-4.28-2.68-3.16-3.75-2.89-4L299,527.28l-4-3.09-2.72-4.07-2.09-4.49-2.37-4.25-3.52-3.57-2.68-4.1-1.22-4.89-3.08-3.9-2.22-4.36-.7-5-3.24-3.94-.38-5.08-3.13-4.06-.83-4.87-2.21-4.44.38-5.16-2.31-4.45-1.05-4.78.1-5-2.3-4.56.29-5-.5-4.85-.21-4.87,0-4.88-.44-4.84-.11-4.87,0-4.86-.49-4.89.81-4.84-.24-4.91.91-4.81-.16-4.94.44-4.88,2.48-4.52,1-4.76.39-4.9,1.77-4.57,1-4.77.65-4.9,1.52-4.64,2.13-4.43L273,334l1.06-4.83,1.65-4.61,2.49-4.23,2.91-4,1.66-4.63,2.87-4,2.07-4.44,2.77-4,2.85-3.95,2.28-4.35,2.4-4.3,4.15-3,2.86-3.94,3.22-3.64,3-3.85,3.39-3.5,2.6-4.3,4.06-2.83,3.48-3.42,4.08-2.74,3.31-3.64,3.54-3.4,4-2.84,4.32-2.36,4.27-2.39,3.62-3.35,4.29-2.35,4-2.86,4.75-1.51,4-2.78,3.94-3,4.53-1.67.07-.47-5.1,1.62-5.08,1.4-4.74,2.36-5,1.61-5,1.74-4.42,3-4.29,2.25-4.67,1.53-4.42,2.07-3.69,3.32-4.72,1.6-3.49,3.56-4,2.68-4.06,2.66L310,255.88l-3.07,4L302.34,262l-2.64,4.4-4.6,2.16-2.86,4.07-4,2.84-2.59,4.25-4,2.93-2.77,4L275.28,290l-2.95,3.86-1.92,4.61-2.77,3.95-3.06,3.76-3.65,3.41-1.28,4.91-2.83,3.94-2.8,4-2.35,4.25-1.75,4.54L248,335.64l-2.38,4.24-2.1,4.39-.89,4.85-1.31,4.66-2.52,4.27-1.8,4.53.27,5.1-1.12,4.69-1.56,4.6-1,4.73-.72,4.78-1,4.75-.92,4.76-1.45,4.72v4.88l1,4.91-.3,4.82-1.68,4.81.75,4.85.9,4.82-.51,4.87-.51,4.9,1.62,4.72.79,4.77.14,4.87.13,4.89,1,4.75.63,4.83,2.77,4.33-.43,5.1,2,4.49.75,4.84,2,4.46,1.25,4.71,1.39,4.67,2.9,4.06,2,4.39,2,4.41,1,3.09L249,514.48,245.63,511l-3-3.8-3.32-3.53-2.92-3.87L232.19,497l-1.62-4.9-4.78-2.46-3.17-3.72-2.23-4.39-1.87-4.6-2.44-4.2-3.66-3.43-1.24-4.92-3.35-3.66-1.05-5-2.29-4.25-2.25-4.28-4.2-3.34-1.3-4.76-3-4-1.43-4.69-.84-4.9L189,421.26,186.44,417l-1.54-4.63,1-5.43-2.77-4.22-2.06-4.46L180,393.52l-.54-4.87-2.65-4.38,1.28-5.25-.73-4.78-2.15-4.54-.85-4.78-.92-4.78.06-4.91-.38-4.83-1.4-4.75-.2-4.86.24-4.88-1.57-4.8,2.39-4.92-2.29-4.83-.28-4.87,2.37-4.8-2.24-5,1.08-4.82,2.11-4.7.35-4.83.37-4.82-1.74-5.12,2.67-4.53-.42-5,2.06-4.56-.48-5.05,1.34-4.68,2.58-4.39.69-4.82-.7-5.21,1.58-4.62,2-4.49,3.08-4.12-.4-5.25,1.93-4.48,2.94-4.09,2.26-4.31.16-5.18,1.52-4.65,3.85-3.59.66-5.05,2-4.46,4.23-3.28.18-5.41,4.43-3.08.21-5.49,3.51-3.56,1.43-4.86,5-2.56,1.12-5.09,2.78-4,4.19-3,1-5.36,4.23-2.87,3.1-3.73,3.38-3.5,3.59-3.29,2.92-3.88,3.24-3.59,3.32-3.53,2.64-4.2L260,112.9l2.72-3.8-1.89-3.2-3.43,4L254,113.18l-5.42.93-3.73,3-2.92,4-4.24,2.47-3.21,3.64-2.6,4.3L228.42,135l-4,2.9-3.94,3-2.24,4.53-2.78,4-3.7,3.22-4.1,2.92-2.13,4.52-3.68,3.31-2.25,4.38-3.1,3.76-3,3.82-1.84,4.61-1.78,4.61-4.57,2.89-2.11,4.42L180.66,196l-1.85,4.54-2.35,4.26L176,210l-3.21,3.87L171,218.41l-2.9,4.06-.88,4.92-1.14,4.79-2,4.45-2.6,4.24-2.3,4.38-.28,5.05-1.87,4.52-.7,4.87L153.47,264l-.35,5,.33,5.08-1.75,4.59-2.16,4.54-.72,4.84-1.23,4.74.3,5-1.1,4.77-.92,4.81,1.18,5-.15,4.86-1.58,4.76-.73,4.85,1.51,4.92-1.82,4.84,1.8,4.87,0,4.85-.11,4.86-2.2,5,2.38,4.73-1.67,5,3.1,4.59-1.78,5.12,2.27,4.62-.58,5,2.55,4.51-.63,5.07,1.85,4.61.06,5,1.27,4.73,3.13,4.22,1.38,4.65.72,4.85-.41,5.24,3.8,3.88.88,4.85.88,4.86,1.57,4.63,2.48,4.26,2.13,4.39,1.25,4.78,1.61,4.64,3.41,3.77,2.64,4.12.72,5.11,1.74,4.62,4.67,3,2.53,4.14,1.82,4.58,2.56,4.14,2.85,4,2.44,4.22,2.39,4.27,1.65,4.83,3.46,3.52,4.68,2.55,2.89,3.9,1.12,5.4,4.06,3,4.15,2.83,2.37,4.42,2.34,4.5,4.75,2.2,3.71,3.18,2.88,4,2.84,4.11,3.78,3.11,3.27,3.68,5.52,1.06,2,5.18,4.52,2.18,3.18,3.85,4.38,2.32,3.59,3.36,3.69,3.27,5.11,1.18,4.18,2.5,3.76,3.22,0,0,3.19,2,3.26,2-3.1-5.8-.6.32.62-.34,3.34,5.64,3.44,3.48,4,2.82,4.61,1.69,4.43,2,3.94,3L320,611l4.71,1.33,4.25,2.38,4.5,1.77,3.78,3.64,5.22-.06,4.46,1.93,4.46,1.92,4.79.94,4.56,1.67,4.79.87,4.77.9,4.71,1.09,4.44,2.23,4.55,1.92,5.1-.73L393.6,635l4.94-.1,4.58,2.17,4.79.84,5-1.7-.2-.09,1.35.2H419l4.15,1.18-4.36.4-4-1,2.93,1.2,4.73,1.7,5-1.28,4.1.49,1.87.5.52,0,3.15.81,1.9-.67,4.21.23,1.19-.34,2.44.94.69-.39-2.28-.8,2.86-.83,1.9.24-2.48,1.39.57.2,4.88-1.09,2.3,0-.12,0,1.42,0h-1.3l1.27.52,4.87,0,4.9.47,1.95-1.37,4.26-.23,2.12-.64,1.28.35,4.88,0,4.89-.13,4.58-2.41,5,.53,5-.06,4.45-3.13,4.71-1.46,4.81-.91,5.12.33,4.61-1.85,4.81-1,4.67-1.56,5.2.19,4.28-2.83,4.4-2.32,4.76-1.27,4.36-2.33,5-.56,4.41-2.21,5-.86,4.36-2.32,3.68-3.74,5.1-.74,4.93-1.19,4.85-2.63.68-1.83,2.62-1.44,4.35-2.52,3.86-2.28.33.36,4.21-3.26,4.41-2.11,4.47-2,3.41-3.61,3.37-3.61,3.72-3.1,4.92-1.54,2.82-4.25,5.08-1.43,3.85-3,2.66-4.34,3.26-3.61,4-2.77,3.31-3.55,2.62-4.23,3.73-3.1,4.53-2.38,1.89-4.84,3.78-3.11,4.42-2.6,2.4-4.32,3.76-3.21,2.9-3.91.9-5.39,3.7-3.28,2-4.49,3.76-3.29,3.47-3.53,2.2-4.35,1.11-5,2.77-4,2.41-4.18,3.06-3.84,3.49-3.65,1.52-4.68.35-5.22,2.56-4.13,2.61-4.12.79-4.93,4.06-3.55.26-5.12,2.61-4.19,1.13-4.74,2.77-4.18ZM361.47,586.89l-2.78-1.47,3.12.41,3.08,1.31Zm7.64,1.3,2.07.34,3.82,1.71-3.93-1.34Zm11,4.62-3.44-1.8,3.5,1.57,2.3-.09Zm9.73,39.81-4.58-1.79-2.66-1.41,2.71,1.23,5,.31,2,1.14Zm9.84.86-1.09-.48,1.23-.14,3.54,1Zm9.38-35.64-1.38-.55,1.47-.08,2.39.36Zm14.62,1.31-4.85-.65-1.17-.3,1.2.09,4.82.85h0Zm14.63,1.79L434,599.85l4.36.28,2.59.11Zm14.77-.32-1.92-.33,1.91,0,2.7-.09Zm9.84-.29-3.35-.35,3.3-.27,2.6-.23Zm14.28,37.37-.85-.24.8-.23,1.88-.29Zm.19-38.51-4.85-.27-1.67-.06,1.63-.34,4.83.06,4.83,0,4.65-1.48,4.69-1.05,4.8-.33h1.41l-1.35.36-4.76.63-4.7,1-4.74.88Zm19.1,35.35-4.86.61L487,636.83l-3.76-.79,3.41-1.21,4.84-.59h5l1.53-.42Zm9.27-40.46-.42.06.4-.14,1.05-.11Zm4.84,36.47-3.46,1,3.18-1.93,3.38-.19ZM519.79,591h.07l.26-.06-.25.07Z"/><polygon class="cls-1" points="412.9 636.22 413.99 636.71 414.75 636.9 413.01 636.18 412.9 636.22"/><polygon class="cls-1" points="391.1 504.08 394.29 501.87 396.96 499.79 394.2 501.69 391.1 504.08"/><polygon class="cls-1" points="589.26 383.03 592.86 380.61 594.09 379.61 592.82 380.48 589.26 383.03"/><polygon class="cls-1" points="573.46 394.54 577.12 391.75 579.92 389.62 577.11 391.62 573.46 394.54"/><polygon class="cls-1" points="573.34 394.63 573.46 394.54 573.3 394.65 573.34 394.63"/><polygon class="cls-1" points="556.45 406.29 557.36 405.56 559.22 404.4 557.4 405.49 556.45 406.29"/><polygon class="cls-1" points="389.11 525.71 390.79 524.6 391.75 523.78 390.67 524.56 389.11 525.71"/><polygon class="cls-1" points="519.82 532.5 520.4 532.97 520.87 533.25 520.39 532.91 519.82 532.5"/><polygon class="cls-1" points="540.18 546.8 538.64 545.8 540.06 546.98 540.18 546.8"/><path class="cls-1" d="M491.93,354.46l-1.15,0,1.14,0L490.41,350,489,345.43l-1.47-4.51L486,336.45,484.43,332l-1.38-4.53L481.53,323l-1.47-4.5L478.59,314l-1.47-4.36.1,0-1.67-4.7-1.36-4.64-1.71-4.52-1.41-4.63-1.43-4.61L467.91,282l-1.69-4.53-1.31-4.66-1.51-4.59-1.72-4.53L460.21,259l-1.58-4.57-1.42-4.62-1.63-4.56-1.29-4.67-1.77-4.51-1.45-4.63-1.42-4.54-1.46,4.58-1.69,4.6-1.34,4.72-1.7,4.59-1.33,4.72-1.79,4.56-1.64,4.62L437.16,264l-1.28,4.74-1.47,4.67-1.8,4.56-1.38,4.71-1.76,4.58L428,291.91l-1.35,4.71L425,301.25l-1.73,4.59-1.52,4.67L420,316.3l-1.14,3.24-1.4,4.37-.81,2.6L416,328.3l-.65,2,.7-2,.1-.31-.09.31-.76,2.14.05-.15-.82,2.33-.92,2.77v0l-.54,1.63,0,.1,0-.1.53-1.59L413,337l-1.45,4.35-1.31,4-.12.33-1.4,4.38-.61,1.87-.85,2.43-4.81.3-4.86-.22-4.86-.08-4.86-.05-4.86.05-4.86.31-4.86-.31h-9.71l-4.86,0-4.86,0-4.86.25-4.86-.29-4.86-.19-4.86.37-4.86-.25-4.87-.1-4.86.47-4.86-.22-4.87-.18-4.86.28-4.87-.33-4.94.15v.08l-5.06.16-5.13-.4-5.13.12H275l-5.24.07,4.06,2.92,4,2.78,3.84,3.06,4.26,2.47,3.86,3,4,2.87,4.1,2.68,3.9,3,3.93,2.93,3.94,2.92,4.11,2.68,4.06,2.75,3.87,3,4.1,2.7,3.94,2.93,4.14,2.64,3.79,3.12,4.12,2.69,3.85,3.05,4.11,2.69,4.08,2.74,2.79,2-.09.12,1.18.91,3.88,2.76,3.94,2.7,3.83,2.86,3.92,2.72,3.87,2.81,3.83,2.67-1.5,4.49L378,442.54l-1.33,4.53-1.61,4.44-1.45,4.5-1.41,4.51L370.75,465l-1.75,4.4L367.78,474l-1.54,4.46L364.89,483l-1.71,4.42L361.8,492l-1.45,4.58L358.6,501l-1.45,4.59-1.52,4.56-1.47,4.57-1.34,4.62-1.61,4.53-1.34,4.62L348.18,533l-1.4,4.49,3.81,1.13,3.24,1.32-3.32-1.1-3.88-1.26L345,542.35l-1.54,4.77-1.6,4.75-1.52,4.79-1.66,4.77,4.09-2.94,4.12-2.86,4.06-3,4.07-2.94,4.08-2.89-.45-.65.49.66h0l.06.08,4-2.78.59-.44,3.38-2.29,3.9-2.84,3.91-2.82,3.83-2.95,2-1.46,2-1.28,4-2.67,2.32-1.7-2.36,1.55-4,2.77-2,1.3,1.87-1.37,3.92-2.8,3.91-2.83,2.35-1.48-1.11.94,2.75-2,.11-.06,2.17-1.66,1.87-1.12,2.28-1.92,1.45-1,.93-.72,3.11-1.92,1.68-1.31-1.74,1.09-1.93,1.3,1.79-1.36,4-2.74.64-.4-.61.44-2.14,1.67,2.36-1.48,2.26-1.8,1.59-1,2.28-1.73,1.67-1.05,1.26-1,2.69-1.76,2.56-2.1,1.28-.84,4-2.73,4-2.78,3.82-3,4.08-2.61,3.94-2.81,1.56-1.32,2.26-1.52,2.11,1.39,1.75,1.4,3.95,2.77,2.37,1.51,1.62,1.21,3.84,2.93,3.94,2.79,3.87,2.46.24.17.2.15,3.51,2.87,3.87,2.55.21.16.25.17,3.55,2.69,3.76,2.49.26.19.18.12,3.72,2.73,4,2.76,2.88,2.09,1.07.82,3.88,2.87,4,2.75,4,2.74.69.44-.71-.52-1.86-1.47,1.88,1.44,2.16,1.5-1.47-1,3.19,2.33,3.37,2.39-2.4-1.9,3.1,2.12,2.47,1.83-2.12-1.3,3.45,2.47,2,1.31-.3-.25.86.62-.56-.37,1.88,1.61,3.94,2.79,4,2.75,2.52,1.62-.24-.19,1.73,1.13,2.28-3.3,2.49-3.19h0l-2.43,3.26-2.3,3.35,4,2.92,4.08,2.91,4.11,2.87,4.07,3,4.11,2.93-1.55-4.79-1.62-4.75-1.61-4.75-1.53-4.78-1.61-4.74-2.35.76,2.2-.85L551,533.15l-1.28-4.59-1.56-4.5-1.68-4.45-1-4.69-1.72-4.45L542.05,506l-1.42-4.54-1.31-4.58-1.46-4.53L536,488l-1.42-4.54L533,478.92l-1.13-4.64-1.7-4.45-1.25-4.61-1.49-4.53L526,456.17l-1.6-4.49-1.56-4.5-1.72-4.46-1.21-4.63-1.61-4.35,2.29-1.64,1.69-1.12,3.91-2.81.67-.55-.67.5-2.29,1.61,2.25-1.62,1-.7-.25.21.75-.57,2.44-1.77,4-2.75,0,0,3.94-2.68,2.41-2,1.4-.95,3.94-2.76,3.92-2.8.62-.43,3.46-2.28,2.74-2.31-2.85,2.29-.81.55.8-.56,3.73-3.07,4.07-2.59,1.18-.79-1.12.88-2.23,1.4,2.33-1.4,1.09-.92,2.77-1.83,3.88-2.86,1.83-1.31,2.16-1.41,0,0-1.49.94,1.4-1,3.76-3,3.94-2.8,1.22-.75-1.17.82-1,.79,1.11-.8,1.54-1.08,2.46-1.51,2.68-2.11,1.19-.84.36-.25-.41.27-.93.66.9-.71,3.92-2.81,1.37-.85,0,0,.08-.06,2.67-1.66,3.74-3.07,4-2.66,3.88-2.71h0l4.27-3,4.06-3.15,4.25-2.87,4.11-3.09,4.39-2.94-5.1.09-5-.06-4.95.2-4.94-.07-4.95.12-5-.33-5,.18-4.94.1-5-.11L580,354.4l-5,0-4.94.22-4.95-.16-5,.14-4.95-.07-5,.05-5-.36-4.95.42-5-.44-5,0-5,.18v0h-4.73l-4.78.1-4.79-.09H496.75l-4.8,0M295.56,370.81m0-14.94-.06,15,250.2,159.55,3.65,2.84-3.75-2.69-1.79-1.28Zm-4.67,11,2.35-.73-2.32.82-1.38.39Zm-3.52-16.77,1.4,1.16-1.46-1-2.66-1.88Zm-2,13.36.73,2.17-.9-2.11-.85-3.32Zm50.93-173.19,4.25-2.87,2.35-1.77-2.24,1.9-4.32,2.77-.66.45ZM359.74,411.69l-.34.48.32-.48,1.43-2ZM364,538.06l-1.46,3.68,1.27-3.73.71-2.13ZM366,521.9l-3.4,2.36,3.21-2.62,3.53-2.14Zm2.49,1.81-.2.53.17-.53,1.52-4.6,0,0Zm1.7-4.87,0-.08.81-.57Zm48.28-34.11-4.17,2.65-.8.56.76-.57,4.13-2.74,2.5-1.88Zm3.83-3.13-1,.79-3,2.16-4.08,2.77L412.06,489l-1.78,1.24-4,2.87-4,2.85-1.6,1.25-2.44,1.66-1.23,1,1.31-.91,1.75-1.24L398.33,499l-4,2.89-4,2.93-2.53,1.66,2.47-1.74.81-.62-.87.6-4.12,2.74-1.12.87-2.93,1.89-3.29,2.52-.66.46-.66.47L374,515.9l-2.37,1.85-1.34.91,1.39-4.41.22-.76.87-2.86-.4,1.24.69-2.39.38-.93-.33.95-.34,1.13.37-1.16.71-1.92,1.1-2.66.71-2.55.73-2.25.42-1.38,1.23-3.25,1.66-4.68.73-2.87.61-2,.54-1.6,1.21-3,.51-2,.87-2.78,1.63-4.69.44-1.51-.48,1.45L384.19,476l1.42-4.14,1.47-4.73.85-2.22-.77,2.24-.93,3.26,1.08-3.27,1.11-3.5.45-1.15,1.74-4.66.78-3L392,453l1.58-4.71.76-2.8.77-2,3.93,2.95,4,2.88,4.06,2.87,4.13,2.75,4,2.86,4,2.9,4,2.89,4.08,2.83,4,2.93,3.92,2.87-4.33,3.1-4.35,3.15Zm-39.92-51.84.07-.2,1.33-4.08.09-.26-.08.25-1.34,4.08Zm3.43,7.27,2.22,1.58.47.35-.48-.31Zm7.62-14.69h0l3.59,2.37,1.41,1.11L397,424.75ZM396.93,438l-.5,1.52-1.3,4h0l1.31-4,.19-.59Zm-2.77,8.09-.71,2.18L392,453l-.53,1.52.4-1.53,1.46-4.76ZM390,419.82l-.82-.59.82.58,3.43,2.5Zm10.13,8.44.29-.91h0l0,0-.1.3ZM434,493.69l-4,2.73-3.92,2.81-1.22.86,1.12-.92,3.92-2.81,3.92-2.83,2.69-1.85Zm7.72-5.81-.22.15.19-.14,2.72-1.8Zm8-25.53,0,0-14,10h0m17.94,13L452,484.11l1.62,1.07,3.08,2.16Zm50.94-41.68,1.27,4.65,1.83,4.62,1.41,4.75,1.64,4.68,1.39,4.77,1.63,4.69,1.45,4.74,1.66,4.68,1.63,4.69,1.21,4.83,1.56,4.7,1.69,4.67,1.46,4.75,1.68,4.68,1.83,4.63,1.23,4.6-3.55-2.72-3.9-2.66-1.91-1.26-2-1.42-.7-.48-3-2.35L511,506l-1-.73-.76-.53.7.51.54.39-.51-.33-.9-.69.17.12-.28-.2-2.74-2.1-1.8-1.23-2.09-1.57-3.81-2.78-3.69-2.58,3.29,2.48-3.49-2.49L493,493.05l1.61,1.12.18.13-.13-.1L493,493l-2.07-1.61-3.94-2.62-3.25-2.32-.62-.48-.66-.42-1.63-1.13-1.51-1.17-2.3-1.54h0l-1.55-1.27-3.86-2.73L467.7,475l-3.88-2.69,3.89,2.7,2.19,1.7-2.31-1.53-3.8-2.61m40.42-29M463.8,472.36l-1-.75,1,.7,4-2.84,4.05-2.87,4.09-2.81,3.93-3,4.05-2.85,4.1-2.81,4.08-2.82,4-2.92,4.11-2.79,3.92-3M499,427.78l-.16-.48.2-.15-.19.14Zm17.82,1.76.21.68-.23-.66m21.12-9.85-3.39,2.38,3.23-2.52,2-1.38Zm-26-1.82.81-.58-.3.21.28-.2-1.57-4.62L509.86,408l-1.55-4.65-1.6-4.62-1.49-4.66-1.6-4.63-1.68-4.6-1.51-4.66L499,375.49l-1.51-4.69,4.63.07,4.67,0,4.68-.14,4.68.06,4.69.06,4.63-.09,0-1.09,0,1.14,4.79-.13,4.78,0,4.78.25,4.78-.15,4.79-.12,4.78-.14,4.78.25,4.78,0,4.79-.17,4.79.43L578,371l-3.6,2.65-3.76,2.69L566.92,379,563,381.46l-3.68,2.8L555.57,387l-3.69,2.8-3.82,2.62L544,394.91l-3.83,2.9-4,2.62-3.71,3.05-3.9,2.8-3.89,2.81-4,2.71-3.84,2.9-4,2.63.13.48-.16-.46m-15.39-46.56h-.06m-15.74.06-5.15-16.42,3.23,15.17.15.47m-5.15-15.6.12.37-.12-.37ZM462.24,316.9m-34.37,27.81,1.54-4.89.3-.85-.29.86-1.52,4.89-1,2.83Zm9.75-28.87,1.13-4.73,1.59-4.58L442,302l1.51-4.61,1.37-4.65,1.7-4.55,1.55-4.6,1.52-4.64,1.63,4.44,1.47,4.46,1.24,4.53,1.56,4.43,1.46,4.46,1.59,4.42,1.39,4.5,2.93,8.9.26.82,1.12,3.62,1.49,4.41.94,2.73.53,1.71.85,2.39-.3-1,1.06,3,1.49,4.42.54,1.72-.58-1.68-1.49-4.41-.72-2,.6,2,1.47,4.42,1.51,4.4,1.43,4.45,1.49,4.42-1.4-4.44-.29-1,.32.94,1.4,4.48h.05l.33,1-.38-1-5-.12-5-.05-5,.25-5-.12-5-.1-5,.15-5-.18-5,.07-5,.12-5-.13,1.72-4.79,1.59-4.88,1.58-4.87,1.67-4.84,1.55-4.88,1.35-4,.3-.87.24-.77.3-.95Zm-13.05,38.51,1-2.78-1,2.8h0l0,.09m-7.43,16.35-9.24-18.09-.53,1.63h-.07Zm-.17,1.72h0Zm91.11,72.81h0l-4.08,3-4.14,2.86-4.05,3-4.07,3-4.22,2.74-4,3.06-4.17,2.81L466,450.56l-4,3-4.14,2.86-4.07,3-4.19,2.86-4-2.95-4.21-2.76-4-3-4.07-2.95-4.1-2.91-4.1-2.92L421,441.93l-4.11-2.9-4.12-2.88-4-3-4-3-4.16-2.83,1.44-4.73,1.53-4.71,1.57-4.7,1.69-4.66,1.53-4.71,1.62-4.69,1.59-4.68,1.49-4.73,1.68-4.66,1.41-4.76,1.62-4.69,1.41-4.74.18,0,4.62-.08h4.68l4.69.11,4.68-.1,4.69.26,4.68-.28,4.69.22,4.68,0,4.69-.06,4.68,0,4.69-.08,4.7.1,4.66-.12v0h.07l1.62,4.62,1.5,4.72,1.43,4.75,1.57,4.7,1.72,4.65,1.36,4.77,1.7,4.65,1.44,4.74,1.73,4.65,1.57,4.7,1.41,4.77,1.65,4.6M402,370.67m0,.22-1.51,4.61-1.66,4.61-1.39,4.69-1.57,4.65-1.6,4.62-1.48,4.67-1.53,4.65-1.69,4.6L388,412.65l-1.49,4.63-4.11-2.82-4.05-2.95-4.1-2.9-4.11-2.89-4.08-3L365,404.22l1-1.44L361.86,400l-4-2.95-4.1-2.87L349.84,391l-4.3-2.59-3.84-3.23-4.05-2.94-4.17-2.78-4-3-4.11-2.86-4.17-2.8m0-.1,4.75.26h4.74l4.75-.34,4.74.43,4.74-.31,4.75.25,4.75-.35,4.74,0,4.75.32,4.75,0,4.75-.14,4.74.19,4.75-.28,4.75.33,4.75-.37,4.76-.06,4.78.29,0-.06"/></svg>