<?xml version="1.0" encoding="utf-8"?>
<!-- Generator: Adobe Illustrator 24.0.1, SVG Export Plug-In . SVG Version: 6.00 Build 0)  -->
<svg version="1.1" id="Layer_1" xmlns="http://www.w3.org/2000/svg" xmlns:xlink="http://www.w3.org/1999/xlink" x="0px" y="0px"
	 viewBox="0 0 888.2 888.2" style="enable-background:new 0 0 888.2 888.2;" xml:space="preserve">
<style type="text/css">
	.st0{fill:#F2BC4B;}
</style>
<title>Beast</title>
<polygon class="st0" points="464.3,804.2 460.8,801 459.4,796.2 455.1,793.7 452.5,789.7 449.9,785.6 445.4,783.5 442.5,779.7 
	437.7,778.1 434.3,774.5 431.1,770.8 427.5,767.5 422.9,765.4 419.8,761.6 416.9,757.5 413.7,753.8 409.4,751.3 405.8,748 
	401.5,745.5 398.3,741.8 395.4,737.9 390.9,735.5 387.1,732.4 383.9,728.7 380.8,724.9 378.1,720.8 374.5,717.5 370,715.1 
	367.8,710.4 365.5,706 360.5,703.9 358.5,699.1 354,696.7 351.5,692.4 346.9,689.9 344.9,685.2 342.1,681.3 338.9,677.6 335,674.5 
	333.5,669.4 329,666.9 325.9,663.1 323.5,658.8 319.6,655.7 317,651.5 314.4,647.4 312,643.1 308.2,639.9 305.8,635.6 303,631.6 
	300.2,627.7 295.8,624.8 294.5,619.8 292,615.6 287.5,612.8 287,607.3 282.2,604.7 280,600.3 276.5,596.7 275.7,591.5 271.8,588.2 
	270.9,583 267.8,579.2 264.3,575.7 263,570.8 258.8,567.6 257.5,562.8 255.2,558.4 252.7,554.3 249,550.7 248.6,545.3 245.2,541.6 
	242,537.7 241.4,532.5 237.3,529.1 235.5,524.5 232.9,520.3 230.6,516 228,511.8 226.9,506.8 223.6,503 222.9,497.8 221.9,492.9 
	218.9,488.9 217,484.3 214.9,479.9 210.7,476.5 211.1,470.9 209.1,466.4 204.7,463 203.6,458.1 201.1,453.8 199.7,449.1 196.7,445 
	194.5,440.6 192.4,436.2 191,431.4 190,426.5 188.5,421.8 185.4,417.8 182.4,413.6 182.6,408 178.6,404.3 176.4,399.7 174.1,395.2 
	173.8,389.8 170.1,385.9 168.1,381.3 167.7,375.9 165.8,371.2 163.3,366.8 161.7,362.2 159.1,358 156.1,354 156.1,348.8 152.2,345 
	153.3,339.5 150.6,335.2 148.9,330.1 148.7,324.8 148.6,319.5 147.8,314.4 148.5,309 147.6,304.3 146.1,299.7 144.5,295.3 
	143.8,290.6 141.9,286.2 140,281.8 140.3,276.8 136.4,272.8 134.6,268.2 135,262.9 133.8,258.1 130.4,254 129.6,249.1 127.9,244.4 
	125.8,239.9 124.1,235.3 124.6,229.9 122.7,225.3 120.2,220.9 120.6,215.6 118.1,211.2 116.8,206.5 114,202.2 112.7,197.4 
	111.8,192.5 108.9,189.8 105.3,190.4 100.5,191.3 97.8,195.4 96.6,200 94.4,204.3 92.5,208.9 92,214.1 94.5,219.2 93.3,224.4 
	94.8,229.4 97.2,234.2 97.7,239.3 97.7,244.5 99.3,249.1 100.9,253.7 102.2,258.4 100.4,263.7 103.1,268 104,272.8 104.5,277.6 
	105.4,282.3 106.2,287 107.6,291.7 109.2,296.3 108.9,301.2 109.5,306.1 110.7,310.7 112.7,315.2 114.4,319.8 116.1,324.4 
	116.4,329.2 115.9,334.2 116.9,339 118.2,343.6 119.1,348.3 122.2,352.6 122.8,357.4 123.4,362.2 122.7,367.5 124.1,372.3 
	126.8,376.9 126.8,382 129.2,386.6 128.6,391.8 129.2,396.8 131,401.6 131.1,406.7 132.1,411.6 133.5,416.4 135.5,420.9 
	135.9,425.7 138,430.1 138.2,435 140.6,439.4 140.6,444.3 141.3,449 142.8,453.6 144.1,458.2 145.6,462.8 145.9,467.6 147.9,472 
	148.1,477 150.2,481.4 153,485.5 153.6,490.3 155.4,494.7 156.8,499.3 159.9,503.2 160.2,508.3 161.6,512.9 164.8,516.7 
	167.6,520.7 169.1,525.2 170.2,530.1 173.5,533.7 175.8,538 176.4,543 179.5,546.8 179.8,551.9 184,555.3 183.7,560.6 185.4,565 
	187.9,569.2 189.1,574 191.5,578.3 190.9,583.8 192.9,588.4 197.4,591.3 198.8,596.8 204.2,597.3 208.7,597.7 214.1,597.7 
	219.7,597.5 224.5,599 229.7,600.2 232.8,604.5 236.9,607.9 239.2,612.7 242.9,616.5 244.7,621.2 245.4,626.6 248.5,630.5 
	252.2,634.1 255.9,637.5 257.2,642.7 260.4,646.5 262.8,650.9 268,653.1 270.7,657.3 273,661.9 276.7,665.2 279.3,669.5 
	284.5,671.5 286.7,676.2 289.6,680.3 293.8,683.2 296.3,687.7 300.4,690.6 304.1,693.9 307.2,697.9 310.3,701.8 313.6,704.6 
	316.9,707.6 321.3,709 325.2,710.7 330.4,713.2 335.5,716.1 339.6,718 343.7,720.2 347.3,723.2 350.8,726.3 353.7,729.9 
	356.9,733.3 360.3,736.5 362.5,741 365.9,744.3 369.9,747.1 371.9,751.8 376.3,754.2 378.8,758.4 382.1,761.9 385.8,764.9 
	388.5,769.1 392.3,772 397.2,773.7 399.5,778.3 404.7,779.5 407.4,783.8 411.3,786.6 415.1,789.5 418.7,792.8 423.2,794.5 
	427.3,797 430.8,800.5 435.1,802.6 439.8,804 443,808.2 447.5,809.9 452.3,812.6 458.2,812 463.2,812.7 467.6,812.3 465.6,808.8 "/>
<polygon class="st0" points="637.8,705.5 635,701.6 631.8,697.9 628.7,694.3 625.2,691 621.4,688 618.9,683.7 615.8,680 
	612.2,676.9 608,674.2 604,671.5 601.3,668.3 602,672.8 601.9,678 597.9,681.5 593.5,683.4 588.9,686.7 583.8,684.9 579.4,682.2 
	575.3,679.5 570.2,678.3 567.8,674 565.1,670.1 562.3,666.4 559.2,662.7 556.2,658.9 554.3,654.5 553.9,649.5 552.1,645.2 
	548.9,641.3 548.3,636.5 547.4,631.7 545.7,627.3 542.2,623.7 539.2,620 536.6,615.9 534.1,611.6 530.5,608.2 526.8,604.9 
	524.3,600.5 520.9,596.9 516.5,594.2 514.7,589.4 510.3,586.8 508.7,581.9 505.4,578.4 502,574.9 499.1,571.1 496.2,567.3 
	492.6,564 489,560.7 487.7,555.6 484.8,551.8 480.5,549 477.6,545.1 475.9,540.5 474.1,535.9 470.8,532.3 467.1,528.9 465.6,524.2 
	462.1,520.7 461.2,515.6 458.8,511.5 454.5,508.4 452.3,504.1 451.7,498.9 448.9,495 445.8,491.2 444.7,486.3 442.4,482.1 
	438.4,478.8 438.4,473.4 435.1,469.6 432.6,465.5 429.2,461.9 427.9,457.1 427,452.2 423.4,448.6 422.3,443.8 419.5,439.8 
	417.3,435.5 415.5,431 413.3,426.7 409.7,423.1 408.2,418.5 406.9,413.8 403.3,410.1 400.9,406 400.2,400.9 398.9,396.2 
	396.6,391.9 392.7,388.5 390.3,384.3 388.8,379.7 388.1,374.7 385,370.8 382.2,366.8 380.5,362.3 379.1,357.6 377.3,353.1 
	373.2,349.7 371,345.5 371.2,340 367.5,336.5 366.2,331.7 363.2,327.8 362.3,322.9 358.9,319.2 357.1,314.7 355.3,310.2 
	353.4,305.8 351.3,301.4 348.8,297.3 346.3,293.2 344.2,288.8 343.6,283.8 341.9,279.2 340.1,274.8 336.9,270.9 335.5,266.3 
	333.3,262 331.3,257.6 329.9,252.9 327.9,248.6 323.9,245.1 324.6,239.5 321.4,235.6 320.3,230.9 317.9,226.6 315.3,222.5 
	314.7,217.5 311.5,213.7 308.7,209.6 307.2,205 304.4,201 302.8,196.5 300.1,192.3 298.7,187.7 296.4,183.5 294.5,178.9 
	292.8,174.2 291.4,169.4 289.1,165 286.8,160.6 285,156 281.5,152.2 280.4,147.1 276.6,143.6 275.5,138.4 270.3,136.1 267.3,132.2 
	265.9,127.4 263,123.9 262.7,119.7 263.6,115.2 260.5,119.5 257,122.9 256.9,128.3 252.6,131.5 251.2,136.1 249.1,140.4 
	249.6,145.6 245.6,149.4 244.4,154 243.5,158.7 243,163.5 244.1,168.5 241.5,173 241.6,177.8 242.9,182.6 240.9,187.4 242.2,192.1 
	241.6,196.9 241.5,201.7 244,206.2 243.1,211.1 244.1,215.8 245.2,220.5 246.8,225 248.1,229.6 248.6,234.3 249,239.1 250,243.8 
	252.5,248 253.1,252.8 253.4,257.6 254.1,262.4 256.5,266.6 257.9,271.2 260.4,275.4 261.5,280 262.2,284.8 264.9,288.9 
	266.9,293.5 268,298.3 269.2,303.1 269.8,308.1 271.6,312.7 274.6,316.9 274.6,322 275,327.1 278.5,331.1 278.5,336.4 281.6,340.5 
	282.2,345.5 285.4,349.7 285.5,354.8 286.7,359.6 288.2,364.3 290.7,368.7 290.3,374 293.6,378.1 295.1,382.8 296,387.7 
	298.4,392.1 299.6,396.9 300.7,401.8 301.6,406.7 304.2,411 305.3,415.9 306.8,420.6 308.4,425.3 311.8,429.3 311.9,434.5 
	313.4,439.3 317,443.2 316.5,448.7 320.6,452.4 322.1,457.1 324.9,461.3 325.1,466.6 328.6,470.5 329.1,475.7 331.9,479.9 
	335.2,483.7 336.4,488.7 339.8,491.5 342,488.1 344.1,483.6 345.7,478.9 346,473.8 349.6,469.8 349.8,464.8 350.1,459.8 353,455.4 
	352,450.2 353.4,445.4 353.8,440.5 355,434.9 358,439.9 358.6,444.8 361.3,449 361.5,454.1 362,459 364.6,463.2 366.1,467.8 
	367.9,472.3 371.7,476 371.1,481.5 372.8,486 376.9,489.5 377.9,494.4 380.1,498.7 381.4,503.4 384.2,507.4 386.4,511.8 
	388.4,516.1 389.8,520.8 390.8,525.7 392.4,530.2 395.5,534.2 398.4,538.1 398.4,543.5 402.3,547 404.5,551.2 406.9,555.5 
	407.4,560.7 411.2,564.2 413.4,568.6 414.1,573.8 416.4,578.1 419.3,582.2 421.6,586.6 424.9,590.2 428.8,593.5 430.3,598.5 
	435.3,600.7 436.9,606 441.5,608.2 445.8,610.8 449.3,614.2 453,617.5 457.2,620.3 460.4,624.3 464.3,627.3 468.3,630.1 
	472.3,633.1 475.2,637 478.8,640.3 482.1,643.8 483.7,648.7 488.6,651.1 491.8,654.7 493.4,659.6 496.5,663.3 501.4,665.2 
	504.8,668.7 508.9,671.2 513.4,673.1 517.8,675 521.5,678.8 526.2,680.1 531.1,680.8 535.2,684.1 540.2,684.5 544.8,686 
	549.8,686.1 554.5,687.6 559,689.5 564.1,689.5 568.9,690.7 573.2,693.5 578,694.2 583,694.6 587.5,696.7 591.9,699.2 596.5,700.9 
	601.8,700.1 606.1,703 611,703.6 616.1,703.5 620.7,705.3 625.1,707.6 630,708.3 634.9,709.1 639.7,710.1 645.1,713.6 640.7,709.3 
	"/>
<polygon class="st0" points="793.3,598.5 789.5,595.5 786,592.1 782.8,588.4 779.3,585.1 774.4,583.2 772.6,578 768.3,575.5 
	765.3,571.7 761.6,568.6 757.7,565.7 755,561.4 750.7,559 746.6,556.2 743.5,552.5 739.4,549.7 736.1,546.1 732.2,543.2 
	729.1,539.5 725.3,536.4 722,532.9 718.7,529.3 715.8,525.4 712.2,522.1 708.7,518.8 705.5,515 701.3,512.4 699,507.9 694.7,505.3 
	692.6,500.6 687.4,498.9 684.2,495.3 682.2,490.5 677.2,488.5 674,484.9 671.7,480.4 667.9,477.3 665.2,473.2 660.2,471.3 
	658.5,466.2 654.2,463.6 651.7,459.1 648.2,455.6 644.8,451.9 641,448.7 637.1,445.4 634.7,440.9 630.4,438.1 627.3,434.2 
	625.5,429.2 622.2,425.5 619.5,421.3 614.7,418.6 612.6,413.7 610.2,409.1 607.2,404.9 604.2,400.6 601.6,396.1 600.6,390.8 
	597,386.8 594.5,382.6 592.4,378.3 590.5,373.8 588.1,369.6 585.8,365.3 582.9,361.4 581.4,356.7 577.8,353.2 576.1,348.6 
	573.2,344.6 572.7,339.4 568.7,336 566.6,331.7 564.9,327.1 562.8,322.7 560.8,318.3 557.4,314.6 555.5,310.1 552.7,306.2 
	551,301.6 548.4,297.5 545.3,293.7 544.6,288.5 540.3,285.4 539.3,280.4 535.6,276.9 533.4,272.6 531,268.4 529,263.9 527,259.5 
	524.5,255.4 522.2,251.1 519.4,247.1 519,241.9 515,238.5 513.3,233.9 512.2,229 508.8,225.3 506.2,221.2 503,217.5 500.8,213.1 
	499.7,208.2 496.5,204.5 494.1,200.3 492.3,195.7 489.1,192 487.9,187.1 486.3,182.4 483.4,178.5 479.9,174.9 477.4,170.8 
	476.6,165.7 473.6,161.8 470.9,157.8 468.3,153.7 467.8,148.4 464.9,144.5 461.6,140.8 459.7,136.4 458.4,131.8 455.4,128 
	454.3,123.3 451.6,119.3 450.5,114.7 447.8,110.5 446.9,105.8 446.8,101 445.4,96.3 446.7,91.6 446.9,86.6 447.4,81.3 444,77.2 
	439.7,75.6 435.1,75.7 431.7,79 427.8,80.5 424.7,83.8 421.7,87.6 419.3,91.9 417.6,96.4 416.7,101.2 415,105.8 414.8,110.7 
	414.2,115.5 415.3,120.4 415.5,125.1 414.9,130 415.5,134.8 415.5,139.7 418.2,144.1 417.2,149.2 419.5,153.6 420.6,158.3 
	422.7,162.7 421.6,168 424.1,172.3 425.8,176.8 427.6,181.4 429.5,185.9 430,190.9 430.9,195.7 434,199.8 435.2,204.6 435.2,209.7 
	438.5,213.7 439.2,218.6 440.1,223.5 443,227.7 443.6,232.6 446.9,236.6 448.4,241.3 449.7,246 450.6,251 453.3,255.2 454.1,260.2 
	456.6,264.5 457.7,269.5 461,273.4 462.2,278.2 463.9,282.9 466.1,287.3 470,291 470.8,296.1 474.2,299.9 476.3,304.4 476.9,309.5 
	479.3,313.9 481.9,318.1 483.6,322.8 486.8,326.7 488.5,331.4 491.5,335.4 492.8,340.2 494.5,345 498.7,348.4 500,353.2 501.5,358 
	503.5,362.5 507.7,366.3 509,371.5 511.2,376.4 513.8,381 516.8,385.2 516.7,380.3 517.9,375.5 520.4,370.9 521.3,366.1 521,360.9 
	523.2,356.3 525.2,351.7 526.5,346.9 526.3,341.8 527.2,336.2 532.5,338.3 536,341.8 539.4,345.4 542.3,349.5 543,354.5 
	544.1,359.2 545.9,364 544.4,368.9 545.8,373.8 543.9,378.6 544.1,383.5 544.7,388.3 545.1,393.2 545.9,398 547.8,402.5 
	549.9,406.9 549.9,412.1 551.8,416.5 555.4,420.2 557.8,424.3 559.3,429 561,433.7 564.4,437.3 568.1,440.6 570,445.1 573.7,448.4 
	575.4,453.2 578.4,457 582.9,459.6 585.8,463.5 587.5,468.4 591,471.8 594.6,475.1 596.8,479.7 599.9,483.5 604.4,486.1 
	605.7,491.3 609.6,494.4 612.9,498 616.9,501 619.3,505.4 621.4,510 625.6,512.8 627.8,517.3 631.4,520.7 634.5,524.5 637.3,528.5 
	640.4,532.2 644.7,535.2 647.4,539.5 650,543.9 654.4,546.7 658,550.2 660.5,554.8 663.7,558.9 667.7,562.1 672.8,563.8 677,566.4 
	681,569.5 684.6,572.9 689.3,574 694,575.2 698.3,577 702.7,579.1 707.1,580.7 712.2,580.1 716.9,581.2 720.9,584.5 725.9,584.2 
	730.2,586.3 735,586.9 739.1,589.5 744,590.1 748.3,592.4 752.9,595.1 757.4,597.8 762,600.4 767,602.3 772,603.8 776.9,605 
	781.9,607 787.3,606.8 792.6,605.5 796.3,602 "/>
</svg>
