<svg id="Layer_1" data-name="Layer 1" xmlns="http://www.w3.org/2000/svg" viewBox="0 0 888.25 888.25"><defs><style>.cls-1{fill:#5700ff;}</style></defs><title>Dominance</title><path class="cls-1" d="M481.81,525.23l3.51-3.32,2.7-4.13,3.9-2.93,3.25-3.57,3.32-3.49,3.8-3,3.36-3.46,3.05-3.78,3.75-3.07,3.49-3.34,3.51-3.31,3-3.8,3.7-3.13,3-3.83,3.66-3.18,3.48-3.35,3.23-3.6,3.45-3.39,3.63-3.19,3.28-3.56,3.2-3.63,3.57-3.28,3.55-3.29,3-3.82,3.62-3.13-3.28-3.44-3.78-3.05-3.46-3.37-3.1-3.72-3.66-3.16-3.11-3.71-3.24-3.59-3.49-3.34-3.7-3.12-3.47-3.36L529,402.5l-3-3.81-3.76-3.07-2.77-4.06-4-2.8-3.28-3.53-2.85-4-4.09-2.73-3-3.83-3.48-3.34-3.39-3.43-3.21-3.63L488.62,361l-3.23-3.6-3.88-2.95-3-3.88-3.45-3.37-3.42-3.42-3.5-3.34-3.92-2.9-2.72-4.11-3.85-3-3.19-3.65-3.35-3.49-3.62-3.23-3.47-3.93-3.73,3.64-2.7,4.12-4.08,2.75-3.05,3.77-3.2,3.62L424,337.58l-3.5,3.33-3.61,3.22-3.38,3.43-3.14,3.69-3.63,3.2-3.84,3-3.55,3.27-3.49,3.34-2.62,4.21-4,2.87L386,374.69l-3,3.86-3.82,3-3.12,3.7-3.94,2.89-2.92,3.9-3.35,3.49L362,398.45l-3,3.85-4,2.82-3.08,3.75-3.84,3-2.9,3.95-3.58,3.24-3,3.82-3.7,3.15-3.27,3.57L328,432.8l-3.55,3.3-2.94,3.53,3,3.45,3.68,3.15,3,3.82,3.53,3.28,3.89,2.94,2.92,3.91,3.39,3.44,3.51,3.31,3.29,3.54L355,474l4,2.83,3.15,3.67,3,3.83,3.88,2.94,3,3.84L376,494l3.36,3.45,3.57,3.26,2.81,4,3.61,3.21,3.85,3,2.82,4,3.32,3.51,4.09,2.74,3.1,3.73,3.46,3.38,3.72,3.11,2.72,4.11,3.26,3.57,3.44,3.38,3.73,3.11,3.16,3.68,4.15,2.69,2.62,4.22,3.75,3.11,3.53,3.74,3.15-4.08,3.84-3,3.53-3.29,2.94-3.89,4-2.8,3.38-3.44,3.4-3.44,3-3.8,3.11-3.7,3.34-3.49Zm-7.53-18.08-3.37,3.42-3,3.79-3.1,3.69-3.33,3.47-4,2.81-3.5,3.31-2.69,4.11-3.9,2.93-3.32,3.6-3.56-3.35-3-3.78-3.44-3.35-3.76-3L427.23,521l-3.32-3.46-3.3-3.5-3.78-3-3.1-3.67-3.81-3-3.15-3.64-3.34-3.46-3.57-3.21-3.37-3.42-3.18-3.62-3.53-3.26-3.62-3.18-3.25-3.54-3.27-3.53-3.8-3-3.17-3.63-3.3-3.5-3.77-3L362.16,457l-3.09-3.71-3.65-3.15-3.1-3.71-3.24-3.58-3-3.26,3.17-3.08,2.68-4.11,4.06-2.73,3-3.75,3.19-3.61,3.29-3.5,3.48-3.32,3.59-3.2,3.36-3.41,3.12-3.67,3.61-3.18,3.82-3,3.53-3.25,3.47-3.32,2.61-4.19,3.93-2.86,3.24-3.56,3-3.84,3.81-3,3.11-3.7,3.92-2.87,2.92-3.89,3.32-3.46,3.89-2.91,3-3.84,4-2.81,3.07-3.74,3.84-3,3-4,3.34,3.61,3.81,3,3.12,3.67,3.55,3.24,3.18,3.61,3.27,3.52,3.77,3,3.08,3.71,3.66,3.12,3,3.8,3.52,3.27,3.87,2.92,2.9,3.89,3.37,3.42L495,392l3.27,3.53,3.29,3.51,4,2.8,3.14,3.67,3,3.81,3.87,2.93,3,3.82,3.92,2.87,3.36,3.44,3.56,3.24,2.8,4,3.6,3.2,3.85,3,2.73,3.82-3.41,3.11-2.72,4.07-3.7,3.08-3.36,3.43L526,457l-4.09,2.71L518.39,463,515,466.39l-3.08,3.7-3.65,3.14-2.67,4.12-4.19,2.6-3.08,3.71-3.59,3.2-2.85,3.95-3.81,3-3.53,3.28-2.91,3.87-4,2.79Z"/><polygon class="cls-1" points="539.03 606.78 534.36 606.97 529.7 606.85 525.04 606.88 520.37 606.79 515.71 606.86 511.04 607 506.36 606.98 501.69 606.89 501.78 611.55 501.78 616.22 501.73 620.88 501.69 625.55 501.79 630.21 501.77 634.88 501.64 639.54 501.79 644.21 501.58 648.88 501.72 653.48 505.02 650.24 508.38 646.94 511.65 643.55 514.97 640.2 518.34 636.9 521.63 633.53 524.95 630.19 528.33 626.91 531.75 623.66 535.01 620.26 538.39 616.97 541.63 613.54 545 610.22 548.46 606.85 543.69 606.95 539.03 606.78"/><path class="cls-1" d="M558.53,634.73l3.45-3.5,3.37-3.58,3.63-3.34,3.26-3.71,3.93-3,3.41-3.58,3.39-3.61v0l3.29-3.19,3.26-3.28,3.26-3.27,3.22-3.31,3.32-3.22,3.25-3.29,3.26-3.3,3.31-3.24,3.31-3.34h-.06l3.62-3.29,3.26-3.7,3.7-3.25L626.2,567l3.55-3.4,3.39-3.56,3.62-3.34,3.36-3.59,3.58-3.37,3.45-3.5,3.44-3.5,3.33-3.61,3.4-3.55,3.77-3.19,3.4-3.54,3.42-3.53,3.52-3.44,3.32-3.64,3.64-3.31,3.73-3.22,3.26-3.71,3.34-3.62,3.47-3.48,3.66-3.3,3.41-3.54,3.74-3.23,3.42-3.54,3.36-3.6,3.29-3.68,3.64-3.35,3.44-3.48-4.86-.28-4.9,0-4.9,0-4.89.11-4.9.21-4.91-.05L685.9,473l-4.91.1-4.9-.21-4.9.27-4.9.25-4.9,0-4.9-.07-4.9-.51-4.9.51-4.9-.36-4.9.11-4.9,0-4.9-.16-4.9-.07-4.91.57-4.9-.5-4.9.41-4.91-.2-4.9.1-4.91-.21-4.91-.12-5.1.05.38,5.08v4.9l.08,4.9,0,4.9-.33,4.9v4.9l.27,4.9-.4,4.9.54,4.89,0,4.9-.48,4.9.49,4.9-.29,4.9-.35,4.9.14,4.9.07,4.9v4.9l.37,4.91,0,4.9,0,4.9-.4,4.91.27,4.85-4.94,0-4.9.15-4.9-.33-4.9.45-4.9-.51-4.9.52-4.9-.21-4.89.1-4.9-.22-4.9,0-4.89-.18-4.9,0-4.9.17-4.9-.26-4.91.34-4.9,0-4.9-.15-4.9.16-4.9-.33-4.91.27-4.91.22-4.85-.12.19,4.83-.33,4.9.09,4.9-.25,4.9.49,4.9-.56,4.9.48,4.9.11,4.9,0,4.9-.47,4.9.17,4.9v4.9l.32,4.9,0,4.9-.05,4.9-.26,4.9.15,4.9.15,4.9L475,674l.16,4.91-.27,4.9.58,4.9-.25,4.91-.18,4.9.27,4.91-.33,4.9.05,4.91.18,4.82,3.58-3.24,3.25-3.7,3.62-3.33,3.44-3.51,3.48-3.47,3.27-3.69,3.45-3.5,3.65-3.3,3.68-3.27,3.53-3.42,3.43-3.52,3.41-3.53,3.49-3.46,3.53-3.42,3.1-3.85,3.7-3.24,3.64-3.33,3-3.91,3.47-3.49,3.47-3.48,3.81-3.14,3.46-3.51,3.3-3.66Zm48.94-53.8h-4.1l4.09-.31,4.73.29Zm-7.1-31.77-.06-4.89v-4.9l-.37-4.9,0-4.89,0-4.9.4-4.9-.29-4.9-.05-4.9,0-4.9.29-4.9-.15-4.91-.08-4.94,4.93.3,4.89,0,4.89,0,4.9-.11,4.89-.21,4.9.05,4.9.05,4.89-.1,4.9.21,4.9-.27,4.9-.25,4.9,0,4.9.07,4.9.51,4.91-.51,4.77.27-3.29,3.33-3.43,3.38-3.51,3.29-3.45,3.35-3,3.81L658,510.63l-3.11,3.69-3.54,3.26L648,521.06l-3.56,3.26-3.49,3.32L637.51,531l-3.08,3.73-3.4,3.41-3.35,3.47L624.24,545l-3.64,3.16-3.41,3.41L614,555.2l-3.7,3.13-3,3.79-3.44,3.4-3.55,3.05-.38-4.73.3-4.89.34-4.89Zm-12.53,31.65,4.9,0,1.78.11h-6.67L583,581v-.09ZM583,589.09v3.25l-.13-1.58Zm-.24,11.48.19-1.78,0,1.76.08,4.91,0,4.63-.34-4.62Zm-32.45,18L547,622.07l-3.3,3.51-3.7,3.11-3.3,3.52-3.59,3.22-3,3.81-3.59,3.23L523,645.76l-3.22,3.6-3.65,3.17L512.75,656l-3.24,3.57-3.62,3.2-3.19,3.64-3.56,3.27-3.38,3.45-3.36,3.37,0-4.82-.15-4.9.33-4.89L492.1,657l.52-4.9-.53-4.9.22-4.89-.1-4.9.22-4.9,0-4.9.18-4.9,0-4.9-.16-4.9.26-4.9-.35-4.9.06-4.93,4.91.15,4.9-.16,4.89.33,4.89-.27,4.9-.22,4.9.1,4.89-.16,4.9.33,4.9-.09,4.9.24,4.9-.48,4.9.56L556,598l4.9-.11,4.91.05,4.7.32-3.24,3.27-3.41,3.4-3.18,3.62L557.31,612l-3.43,3.37Z"/><polygon class="cls-1" points="609.64 532.26 609.7 536.93 609.71 541.61 609.73 546.34 613.09 542.96 616.34 539.56 619.7 536.25 623.11 533 626.34 529.57 629.8 526.36 633.14 523.04 636.39 519.63 639.74 516.32 643.07 512.98 646.37 509.61 649.72 506.28 653 502.88 656.36 499.63 651.75 499.67 647.09 499.62 642.42 499.56 637.76 499.68 633.1 499.63 628.43 499.51 623.77 499.53 619.1 499.55 614.42 499.65 609.81 499.67 609.69 504.27 609.66 508.94 609.65 513.61 609.83 518.27 609.86 522.93 609.71 527.6 609.64 532.26"/><polygon class="cls-1" points="349.38 281.69 354.05 281.71 358.71 281.67 363.38 281.56 368.04 281.59 372.71 281.71 377.38 281.57 382.05 281.74 386.74 281.67 386.66 276.99 386.8 272.33 386.74 267.66 386.81 263 386.82 258.33 386.76 253.67 386.79 249 386.78 244.34 386.79 239.66 386.72 235 383.32 238.23 380.13 241.7 376.72 244.96 373.45 248.36 370.06 251.63 366.71 254.95 363.46 258.36 360.04 261.59 356.69 264.9 353.35 268.23 350.13 271.69 346.82 275.05 343.37 278.28 339.96 281.69 344.72 281.7 349.38 281.69"/><path class="cls-1" d="M329.79,253.72l-3.46,3.49-3.65,3.31-3.21,3.75-3.62,3.35-3.22,3.74-3.55,3.43-3.74,3.33v.18l-3.15,3.12L299,284.73,295.68,288l-3.24,3.29-3.33,3.21-3.29,3.26-3.18,3.37-3.33,3.22-3.26,3.28,4.89,0,4.9-.06,2.82.05-2.8.12-4.91.19-4.88-.24-3.48,3.42L269,314.49l-3.62,3.33L262,321.33l-3.13,3.82-3.44,3.52-3.82,3.13-3.5,3.45-3.52,3.44-3.37,3.58-3.41,3.53-3.62,3.31-3.36,3.61-3.59,3.35-3.4,3.55-3.32,3.62L217,366.73l-3.35,3.61-3.55,3.41-3.81,3.13-3.09,3.88-3.76,3.2-3.12,3.83L192.56,391l-3.39,3.56-3.34,3.62-3.51,3.45L178.74,405l-3.43,3.55L171.72,412l-3.23,3.37,4.63.34,4.9-.11,4.9.05,4.9-.29,4.9-.2,4.9.2,4.9.4,4.9.06,4.9-.25,4.9.24,4.9-.4,4.9.23,4.9-.08,4.9.24,4.9-.1,4.9-.2,4.9-.31,4.9.54,4.9.06,4.9,0,4.91-.43,4.9.38,4.91-.38,4.9.25,4.91-.19,4.9.28,4.91-.41,4.79.09-.07-4.77.18-4.9.32-4.9-.19-4.9-.38-4.89.58-4.9-.47-4.9-.11-4.9.55-4.9-.28-4.89-.24-4.9.39-4.9-.42-4.9,0-4.9.63-4.9-.41-4.91,0-4.9.24-4.9-.05-4.9-.29-4.91.31-4.91-.09-4.75,4.83-.25,4.9.36,4.9-.24,4.9-.09,4.9-.13,4.9.05,4.9-.18,4.9.34,4.89-.27,4.9.45,4.9,0,4.9.09,4.89.08,4.91-.64,4.9.42,4.9.18,4.9-.6,4.9.57,4.91-.45,4.9.1,4.91-.12,5.11.41-.51-5.09.1-4.9.25-4.9L413,288l.08-4.9-.09-4.9.4-4.9-.26-4.9,0-4.9.49-4.9-.21-4.91.19-4.9-.09-4.9-.38-4.9.25-4.9-.25-4.9.25-4.89-.41-4.91.11-4.9.53-4.9-.13-4.9.05-4.91-.41-4.9,0-4.91.11-4.9.39-4.91-.18-4.91-.09-5L410,174l-3.74,3.21L403,180.93,399.17,184,396,187.86l-3.65,3.29L389,194.68l-3.42,3.54L382,201.65l-3.53,3.42L375,208.5l-3.54,3.4-3.08,3.87-3.88,3.08-3.33,3.61-3.55,3.4L354,229.24l-3.48,3.48-3.17,3.78-3.4,3.55-3.8,3.17-3.28,3.68-3.78,3.18Zm-41.46,90.56,0,4.9-.24,4.89.05,4.9.29,4.9-.31,4.9.07,4.9-.25,4.9.2,4.9,0,4.9.22,4.9.06,5.11-5.09-.43-4.9.11-4.89-.05-4.9.29-4.89.2-4.9-.2-4.89-.39-4.9-.07-4.9.25-4.9-.24-4.9.4-4.9-.23-4.9.09-4.9-.25-4.91.11-4.89.21,3.19-3.61,3.78-3,3.45-3.36,3.38-3.42,3.1-3.71,3.67-3.13,3.13-3.68,3.59-3.22,3.27-3.54,3.6-3.21,3.12-3.7,3.43-3.38,3.4-3.42,3.53-3.28,3.64-3.18,3.28-3.55,3.13-3.67,3.82-3,3.08-3.74,3.33-3.5,3.81-3,3.21-3.62,3.52-3.64-.25,5.12.42,4.9.05,4.89-.63,4.89Zm17.22-51.36v0ZM338,269.84l3.58-3.22,3.11-3.7,3.49-3.33,3.78-3,3.32-3.5,3.44-3.37,3.12-3.7,3.39-3.43,3.48-3.33,3.69-3.13,3.28-3.53,3.38-3.44,3.17-3.65,3.67-3.15,3.18-3.65,3.78-3.05,3.11-3.42.19,4.68-.36,4.89.24,4.89.09,4.9.13,4.89-.05,4.9.18,4.9-.34,4.89.27,4.9-.45,4.9,0,4.9-.09,4.9-.08,4.9.64,4.9-.42,4.91-.09,4.71-4.7.51-4.89-.57-4.9.45-4.89-.1-4.9.12-4.89-.49-4.9.59-4.9-.1-4.9-.25-4.9.34-4.9-.08-4.89.09-4.9-.4-4.9.26-4.91,0-4.6-.29,3.19-3.18,3.53-3.27,3.34-3.46,3.13-3.67,3.58-3.23Z"/><polygon class="cls-1" points="278.6 356.28 278.62 351.61 278.55 346.94 278.65 342.29 275.31 345.56 272.05 348.97 268.63 352.2 265.27 355.52 261.99 358.89 258.73 362.3 255.35 365.59 251.99 368.88 248.73 372.28 245.29 375.52 242.01 378.91 238.62 382.19 235.41 385.66 231.9 388.97 236.66 388.93 241.32 389.04 245.99 388.93 250.65 388.97 255.31 388.96 259.98 388.98 264.65 388.9 269.31 388.92 273.99 388.87 278.59 388.86 278.67 384.27 278.72 379.61 278.7 374.94 278.72 370.27 278.78 365.61 278.63 360.95 278.6 356.28"/><polygon class="cls-1" points="281.57 529.76 281.58 525.1 281.68 520.44 281.48 515.77 281.67 511.1 281.68 506.43 281.62 501.73 276.93 501.64 272.26 501.64 267.6 501.71 262.93 501.78 258.27 501.73 253.6 501.74 248.94 501.86 244.27 501.74 239.59 501.7 234.88 501.74 238.21 505.12 241.5 508.49 244.94 511.71 248.29 515.03 251.61 518.37 254.99 521.66 258.26 525.05 261.54 528.43 264.94 531.68 268.19 535.11 271.5 538.47 274.88 541.76 278.3 545.03 281.61 548.47 281.59 543.76 281.56 539.1 281.7 534.43 281.57 529.76"/><path class="cls-1" d="M415.24,676.16l-.17-4.9.1-4.9.1-4.9-.18-4.9.39-4.91.17-4.89-.36-4.9-.17-4.9.54-4.9-.48-4.9v-4.91l.16-4.9v-9.81l.08-4.9.13-4.91,0-4.9-.52-4.91.52-5.14-5.13.3-4.89-.4-4.9.57-4.9-.45-4.9.18-4.9.34-4.9-.39-4.9.37-4.89-.16-4.9.12-4.9.08-4.9-.68-4.9.51-4.9-.37-4.9.51-4.9-.37-4.91.25-4.9-.17h-4.9l-4.9.14-4.91.08-4.73,0-.22,2.89,0-3.07-4.9,0h0l4.68-.26.07-4.66.06-4.9-.16-4.9.4-4.9-.38-4.9.23-4.9,0-4.9-.28-4.9.13-4.89,0-4.9.33-4.9,0-4.9-.19-4.9v-4.9l-.08-4.9.11-4.9.31-4.9-.2-4.91-.38-4.9.13-4.9-.07-4.92.4-5.08-5.07.22-4.9-.28-4.9.22-4.9.3-4.9-.21-4.9-.24-4.9.43-4.9-.09-4.9-.35-4.9.41-4.9,0-4.9-.49-4.9.45-4.91-.08-4.89-.05-4.9-.37-4.9.12-4.9.22h-4.9l-4.91-.23-4.9-.07-4.91.58-4.9-.63-4.9.45-4.91.08-4.9-.14-4.92-.15-4.84.09,3.44,3.41,3.64,3.31,3.05,3.91,3.84,3.1,3.5,3.46,3.17,3.78,3.84,3.12,3.21,3.73,3.41,3.55,3.61,3.34,3.46,3.48,3.4,3.54,3.64,3.31,3.36,3.59,3.53,3.42,3.43,3.52,3.25,3.71,3.73,3.21,3.64,3.33,3.18,3.77,3.69,3.27,3.3,3.66,3.76,3.21,3.13,3.82,3.85,3.1,3.15,3.81,3.42,3.55,3.66,3.3,3.71,3.26,3.29,3.69,3.57,3.26L282,583l-3.85,0,1.67,1.69-1.76-1.6,3.15,3.4,2.27,1.86,1.2,1.2,1.85,1.87,1.33,1.53,2.36,2.11,1,1,2.1,2.19,1.11,1.2.26.26-.19-.24,2,2-1.84-1.77.46.56,3.41,3.46,1.15,1.1-1.77-2,3.12,3,2,2.08-1-.82,3.28,3.49,1.68,1.4-.51-.58.87.88-.36-.3.63.71,0-.2-.13-.11v-1.58l.14,1.69,1.46,1.21,3.46,3.4,3.17,3.68,3.44,3.43,3.4,3.45,3.48,3.39,3.72,3.14,3.07,3.78,3.62,3.25,3.58,3.28,3,3.82,3.6,3.25,3.2,3.65,3.76,3.1,3.15,3.71,3.65,3.2,3.55,3.31,3.22,3.65,3.51,3.35,3.25,3.61,3.45,3.42,3.76,3.11,3.13,3.73,3.65,3.22,3.51,3.37,3.1,3.75L398,703.2l3.36,3.51,3.44,3.43,3.77,3.11,3.3,3.6,3.5,3.47.08-5v-4.9l.14-4.9.08-4.9-.1-4.9-.49-4.9V686l.6-4.9ZM276.49,557.4l-3.26-3.55L270,550.27l-3.71-3.1L263,543.7l-3.16-3.65-3.69-3.12-3.43-3.38-3.06-3.76-3.73-3.09-3.35-3.46-3.38-3.44L236,516.12l-3.48-3.32L229,509.55l-3.4-3.42-3.25-3.57-3.36-3.47-3.84-3-2.91-3.54,4.63-.27,4.9-.08,4.89.13,4.89.16,4.9-.13,4.89,0,4.9-.23,4.9.61,4.9-.53,4.9,0,4.9.43,4.9-.51,4.89.37,4.91.09,4.9-.18,4.92,0-.09,4.9.22,4.89-.15,4.89.07,4.9-.06,4.89-.33,4.9.37,4.9.22,4.89-.41,4.9.29,4.9-.25,4.9.38,4.9-.49,4.9.53,4.9-.47,4.91.06,4.68-3.33-3.15-3.21-3.6-3.56-3.25Zm31,45.23V602l0,.59,0,.35Zm90.74,46.58,0,4.9-.07,4.9.25,4.9-.46,4.9,0,4.91.17,4.83-3.21-3.5L391.15,672l-3.42-3.37-3.15-3.65-3.41-3.4-3.38-3.43-3.45-3.36-3.69-3.11-3-3.76-3.6-3.22-3.55-3.26-3-3.8-3.59-3.23-3.18-3.63-3.73-3.09L343.79,624l-3.63-3.18-3.52-3.29-3.2-3.63L330,610.54,326.71,607l-3.43-3.41-3.8-3.41,5.16.25,4.89-.3,4.89-.1,4.9.46h4.89l4.9.11H354l4.89-.47,4.9.21,4.9,0,4.9,0h4.9l4.9.14,4.9.07,4.91-.1,5.11-.43-.42,5.1.47,4.9-.23,4.89.08,4.9-.19,4.89.26,4.9-.33,4.89.46,4.9-.42,4.9Z"/><polygon class="cls-1" points="299.69 604.82 300.83 606.08 302.09 607.1 302.05 607.06 299.69 604.82"/><polygon class="cls-1" points="388.78 619.16 388.96 614.49 388.86 609.82 384.2 609.84 379.54 609.73 374.87 609.85 370.21 609.88 365.55 609.91 360.88 609.71 356.21 609.83 351.55 609.86 346.87 609.77 342.18 609.81 345.59 613.08 348.82 616.51 352.19 619.8 355.5 623.16 358.84 626.48 362.14 629.85 365.55 633.1 368.77 636.53 372.13 639.84 375.58 643.06 378.88 646.43 382.22 649.76 385.6 653.07 388.85 656.44 388.94 651.82 388.87 647.16 388.76 642.49 388.78 637.83 388.94 633.16 388.9 628.5 388.98 623.83 388.78 619.16"/><polygon class="cls-1" points="606.94 344.79 606.78 349.45 606.73 354.12 606.72 358.78 606.79 363.44 606.9 368.11 606.77 372.77 606.9 377.44 606.83 382.12 606.79 386.82 611.49 386.85 616.15 386.74 620.82 386.7 625.48 386.68 630.14 386.74 634.81 386.79 639.48 386.75 644.14 386.86 648.82 386.8 653.4 386.75 650.1 383.53 646.89 380.08 643.53 376.78 640.25 373.39 636.78 370.2 633.58 366.74 630.17 363.48 626.83 360.17 623.57 356.76 620.16 353.5 616.8 350.19 613.44 346.87 610.24 343.39 606.85 340.19 606.94 344.79"/><path class="cls-1" d="M473.08,281l.14,4.91.12,4.9-.23,4.91.21,4.91-.16,4.8,4.79,0,4.9.3,4.89-.4,4.9-.17,4.9.49,4.9-.44,4.9.38,4.9.2,4.89-.12,4.9-.06,4.9.1,4.9-.3,4.9-.19,4.9,0,4.9.24,4.9.36,4.91-.45,4.9.44,4.9-.43,4.9.05,4.92.36,4.85-.37,0-4.84v0l0,5,4.95,0,4.9-.06,2.58,0-2.56.25-4.91-.17-4.84,0-.17,4.82.1,4.9-.17,4.9-.12,4.9,0,4.9.09,4.9.17,4.89.28,4.9v4.9l-.19,4.9-.08,4.89.14,4.9-.45,4.9.54,4.9-.5,4.91.14,4.9.4,4.9-.31,4.9-.06,4.9v4.91l.45,4.91-.33,4.91,4.89.28,4.9-.28,4.9,0,4.9-.32,4.9.24,4.9,0,4.9-.2,4.9.27,4.9.33,4.9-.36,4.9-.2,4.91.15,4.9.27,4.9-.27,4.89.11,4.9-.06,4.9.23,4.91-.34,4.9.12,4.9.26,4.9,0,4.91-.27,4.9.39,4.91-.22,4.9-.36,4.9.26h4.92l4.64-.11-3.45-3.12-3.47-3.49-3.07-3.88-3.44-3.51L701,395.77l-3.65-3.3-3.65-3.31-3.23-3.71-3.77-3.2-3.09-3.86-3.62-3.32-3.53-3.41-3.53-3.42-3.2-3.74-3.8-3.15-3.42-3.53-3.4-3.56-3.41-3.55L652,347.39l-3.65-3.3-3.13-3.84L641.57,337l-3.28-3.68-3.38-3.59-3.62-3.33-3.44-3.52-3.5-3.46-3.76-3.21-3.48-3.49-3.28-3.7-3.43-3.69-.3,0-3.1-3L603.74,299l-3.25-3.3-3.26-3.27-3.31-3.23-3.18-3.35-3.37-3.17-3.27-3.28-3.22-3.31,0,4.89v2.92l-.26-2.91.09-4.86-3.25-3.63-3.62-3.34-3.48-3.47-3.33-3.62-3.67-3.28L560,255.24l-3.3-3.65-3.62-3.33-3.59-3.37-3.5-3.45-3.6-3.34-3.28-3.67-3.4-3.55-3.49-3.46-3.45-3.49-3.39-3.56-3.5-3.46-3.35-3.6-3.93-3-3.17-3.78-3.65-3.31-3.59-3.37-3.45-3.52-3.5-3.45-3.1-3.85-3.78-3.18-3.6-3.37-3.5-3.47-3-3.93-3.72-3.25-3.46-3.49-.05,4.88-.27,4.9.63,4.9-.58,4.89,0,4.9.33,4.9-.17,4.9-.21,4.9,0,4.9.18,4.91.24,4.9-.16,4.9.3,4.9-.35,4.9.05,4.9.07,4.9-.05,4.9.37,4.9-.5,4.9.1,4.9.06,4.91-.33,4.9Zm138.84,50.15,3.24,3.57,3.43,3.38,3.55,3.26,3.21,3.59,3.18,3.64,3.66,3.15,3.55,3.27,3.3,3.51,3.21,3.6,3.6,3.22,3.33,3.49,3.46,3.36,3.24,3.57,3.65,3.17,3.32,3.49,3.23,3.6,3.43,3.39,3.61,3.23L676.2,396l-4.61,0-4.89.35-4.89-.26h-4.9l-4.89.29-4.9,0h-4.9l-4.9-.58-4.89,0h-4.9l-4.9.25-4.9.23-4.9-.34-4.9.41-4.91-.54-4.85.23-.07-4.84-.07-4.9.38-4.89-.46-4.89.08-4.9.11-4.9.1-4.89L598,357l-.25-4.9.5-4.9-.27-4.9.27-4.9.16-4.9-.21-4.9.06-4.91-.17-4.91,3.21,3.62,3.61,3.2L608.3,328Zm-6.53-25.68,1.71,0-1.7.11-4.9.19-2.08-.22,2.06,0ZM490.25,229.54l.11-4.9,0-4.9,0-4.91v-4.74l3.22,3.35,3.28,3.53,3.84,2.95,3.1,3.71,3.57,3.23,3.52,3.3,3.37,3.43L517.7,237l3,3.79,3.71,3.1,3.52,3.3,3.42,3.39,3,3.85,3.65,3.17,3.4,3.42,3.37,3.45L548,268l3.85,3,3,3.82,3.44,3.38,3.64,3.19,3.3,3.54,3.22,3.26-4.65-.2-4.9.18-4.89.23-4.9-.15-4.89.29-4.9-.34-4.89.05-4.9.07-4.9-.06-4.9.38-4.9-.5-4.9.1-4.9.06-4.9-.33-4.91.36-5,.06.24-5-.2-4.89v-4.89l.2-4.9-.27-4.89.15-4.9.24-4.9-.2-4.9-.16-4.89,0-4.9-.19-4.9Z"/><polygon class="cls-1" points="499.43 255.38 499.58 260.05 499.65 264.71 499.53 269.38 499.46 274.06 499.57 278.71 504.21 278.76 508.87 278.69 513.54 278.85 518.2 278.72 522.87 278.77 527.53 278.73 532.2 278.82 536.87 278.65 541.54 278.68 546.21 278.73 542.89 275.4 539.5 272.13 536.3 268.66 532.81 265.49 529.49 262.15 526.21 258.77 522.86 255.45 519.52 252.13 516.31 248.68 512.86 245.47 509.59 242.06 506.3 238.68 502.88 235.41 499.58 232.15 499.66 236.72 499.48 241.39 499.62 246.06 499.53 250.72 499.43 255.38"/><polygon class="cls-1" points="727.27 722.55 725.86 717.95 724.91 713.22 723.17 708.7 721.87 704.07 721.29 699.24 720.01 694.6 718.82 689.93 716.95 685.45 716.33 680.63 715.15 675.97 713.9 671.32 712.07 666.82 711.46 662 709.97 657.41 708.58 652.8 707.3 648.15 705.7 643.6 704.4 638.96 703.8 634.13 702.03 629.62 701.13 624.88 700.23 620.14 698.44 615.63 696.95 611.05 696.15 606.28 695.14 601.56 693.48 597.02 692.46 592.3 690.95 587.72 690.26 582.91 688.55 578.38 687.51 573.67 686.08 569.06 685.17 564.31 683.3 559.82 682.3 555.27 678.95 558.47 675.54 561.87 672.38 565.5 668.45 568.38 665.64 572.38 662.21 575.76 658.62 578.97 655.28 582.44 651.9 585.88 648.04 588.82 645.09 592.68 641.43 595.83 637.84 599.05 634.72 602.74 631.54 606.37 627.81 609.45 624.24 612.69 621.4 616.64 617.67 619.71 614.37 623.22 610.8 626.47 607.17 629.63 604.35 633.63 600.58 636.66 597.38 640.27 593.76 643.47 590.69 647.21 587.27 650.61 583.72 653.88 580.15 657.12 576.98 660.77 573.18 663.78 569.84 667.25 566.56 670.8 563.21 674.26 559.67 677.55 556.52 681.23 553.33 684.38 557.56 685.82 562.16 687.24 566.83 688.4 571.58 689.28 576.15 690.82 580.77 692.15 585.58 692.8 590.04 694.76 594.84 695.45 599.45 696.85 604.13 697.98 608.64 699.74 613.3 700.97 617.98 702.09 622.69 703.12 627.33 704.44 631.94 705.84 636.6 707.03 641.3 708.11 645.88 709.64 650.67 710.36 655.18 712.15 659.92 713.04 664.64 714.02 669.21 715.57 673.76 717.21 678.61 717.72 683.14 719.42 687.74 720.85 692.5 721.73 697.2 722.79 701.84 724.12 706.31 726.02 711.14 726.62 715.81 727.81 720.47 729.08 725.11 730.41 729.6 731.74 728.43 727.22 727.27 722.55"/><polygon class="cls-1" points="161.05 166.02 162.72 170.55 163.95 175.21 164.85 179.95 166.21 184.56 167.48 189.21 168.4 193.94 169.71 198.58 171.04 203.21 172.16 207.89 173.64 212.48 174.88 217.13 176.02 221.81 177.46 226.41 178.54 231.11 180.08 235.68 181.43 240.31 182.76 244.93 183.53 249.72 184.6 254.41 185.93 259.05 187.54 263.6 188.5 268.33 189.66 273 191.49 277.49 192.03 282.33 193.83 286.84 194.92 291.53 196.28 296.15 197.01 300.95 198.29 305.6 199.65 310.22 201.12 314.82 202.3 319.49 203.39 324.19 204.69 328.84 206.07 333.43 209.63 330.25 212.65 326.46 216.45 323.46 219.6 319.79 222.81 316.19 226.43 313.01 230.12 309.9 232.99 305.95 236.72 302.88 240.26 299.61 243.39 295.94 246.66 292.4 250.13 289.05 254.01 286.12 256.94 282.24 260.31 278.8 263.73 275.41 267.19 272.07 270.6 268.69 274.1 265.38 277.56 262.03 280.84 258.51 284.46 255.32 287.51 251.56 290.87 248.11 294.76 245.19 298.15 241.76 301.6 238.39 304.55 234.52 308.42 231.58 311.87 228.22 315.27 224.81 318.25 220.97 322.13 218.03 325.37 214.44 328.67 210.93 332.07 207.48 335.46 204.06 330.85 202.76 326.18 201.59 321.49 200.52 316.92 198.94 312.24 197.82 307.51 196.86 302.99 195.16 298.23 194.32 293.66 192.76 289.03 191.46 284.35 190.3 279.79 188.72 275.11 187.58 270.33 186.84 265.83 185.03 261 184.43 256.48 182.71 251.81 181.5 247.18 180.21 242.56 178.8 237.83 177.86 233.16 176.67 228.59 175.13 223.91 174.01 219.18 173.07 214.67 171.27 209.97 170.21 205.34 168.88 200.51 168.3 195.86 167.04 191.23 165.68 186.55 164.53 181.97 163.01 177.23 162.09 172.7 160.37 167.93 159.53 163.34 158.02 158.51 156.51 160.07 161.3 161.05 166.02"/><polygon class="cls-1" points="326.64 675.58 323.39 672.03 319.8 668.81 316.66 665.13 313.09 661.91 309.63 658.56 306.37 655.02 303.09 651.48 299.62 648.14 296.24 644.72 292.52 641.63 289.04 638.29 285.74 634.78 282.55 631.17 279.1 627.8 275.59 624.51 272.19 621.11 268.73 617.77 265.38 614.31 261.92 610.96 258.39 607.69 255.23 604.04 251.74 600.72 248.12 597.53 245.05 593.79 241.34 590.68 238.16 587.04 234.8 583.59 231.32 580.25 228.16 576.6 224.68 573.27 220.9 570.24 217.9 566.41 214.02 563.47 210.96 559.71 207.51 556.32 203.95 552.83 202.41 557.56 201.47 562.28 200.28 566.95 198.75 571.52 197.62 576.2 196.68 580.93 194.88 585.43 193.82 590.13 192.49 594.76 191.91 599.59 190.65 604.24 189.3 608.86 188.15 613.54 186.62 618.11 185.71 622.85 183.99 627.38 183.16 632.14 181.64 636.72 180.08 641.29 179.21 646.04 177.69 650.62 176.88 655.39 175.61 660.03 174.01 664.59 172.89 669.27 171.67 673.93 170.09 678.49 168.91 683.16 167.75 687.84 166.37 692.46 165.36 697.18 164.11 701.84 162.75 706.46 161.7 711.16 160.29 715.78 159.33 720.51 158.18 725.21 156.47 729.94 161.23 728.4 165.87 727.13 170.63 726.33 175.19 724.74 179.98 723.98 184.44 722.04 189.24 721.38 193.87 720.05 198.43 718.47 203.09 717.26 207.66 715.73 212.49 715.13 217.15 713.9 221.63 712.03 226.47 711.52 230.96 709.63 235.58 708.27 240.29 707.24 244.99 706.18 249.69 705.12 254.24 703.48 258.96 702.5 263.52 700.91 268.22 699.86 272.77 698.23 277.48 697.18 282.29 696.53 286.9 695.14 291.47 693.59 296.05 692.05 300.85 691.35 305.49 690.01 310.2 689.01 314.66 687.04 319.37 685.98 324.12 685.08 328.74 683.66 333.67 682.49 329.7 679.33 326.64 675.58"/><polygon class="cls-1" points="722.5 161.25 717.86 162.54 713.23 163.85 708.51 164.84 703.91 166.27 699.18 167.19 694.58 168.63 690.03 170.25 685.31 171.24 680.67 172.54 676 173.69 671.45 175.34 666.68 176.13 661.98 177.19 657.42 178.8 652.83 180.24 648.12 181.3 643.38 182.22 638.83 183.83 634.18 185.1 629.41 185.9 624.85 187.48 620.07 188.24 615.61 190.19 610.8 190.84 606.17 192.18 601.6 193.75 596.94 194.97 592.36 196.5 587.53 197.1 582.87 198.33 578.39 200.2 573.54 200.72 569.05 202.6 564.42 203.97 559.7 205 554.94 206.11 558.22 209.71 561.91 212.82 565.12 216.43 568.77 219.58 572.04 223.12 575.72 226.25 578.98 229.79 581.94 233.63 585.45 236.94 589.08 240.12 592.69 243.31 595.71 247.11 599.17 250.45 602.4 254.03 606.33 256.91 609.6 260.45 612.75 264.11 616.27 267.38 619.48 270.98 623.38 273.89 626.44 277.64 629.69 281.19 633.28 284.4 636.42 288.08 640 291.31 643.46 294.66 646.73 298.21 650.01 301.75 653.48 305.09 656.86 308.52 660.59 311.62 664.07 314.94 667.37 318.46 670.57 322.08 674.02 325.45 677.54 328.75 680.96 332.17 684.52 335.94 685.56 330.87 686.86 326.24 688.24 321.63 689.51 316.98 690.81 312.35 691.96 307.67 693.02 302.98 694.63 298.42 696 293.81 697.18 289.14 698.16 284.42 699.22 279.71 700.26 275.01 701.71 270.41 703.36 265.87 704.63 261.22 705.79 256.55 707.06 251.9 707.73 247.1 709.08 242.47 710.45 237.85 712.17 233.33 713.31 228.65 714.11 223.88 715.64 219.31 716.52 214.56 718.22 210.03 719.58 205.4 720.63 200.69 722.15 196.12 723.39 191.46 724.54 186.78 725.5 182.05 726.95 177.44 727.87 172.7 729.36 168.11 730.22 163.34 731.78 158.77 727.12 159.91 722.5 161.25"/></svg>