<svg id="Layer_1" data-name="Layer 1" xmlns="http://www.w3.org/2000/svg" viewBox="0 0 888.25 888.25"><defs><style>.cls-1{fill:#00ff01;}</style></defs><title>Chaos</title><path class="cls-1" d="M469.44,133.07l.13-.18-3.08-8.09-22.29-83-22.3,83-3.08,8.09,25.38,34.79Zm-49.64-.25h-.51l1.54-4-1.07,4Zm48.78,0h0l0-.06-1.07-4,1.54,4h-.51L453.11,154ZM444.2,166.27h0l-19.75-27.08Z"/><polygon class="cls-1" points="463.37 748.14 460.58 744.47 457.96 740.68 455.21 736.98 452.55 733.23 449.68 729.62 446.92 725.93 444.19 722.3 441.73 726.13 438.77 729.69 436.09 733.44 433.47 737.23 430.36 740.67 427.79 744.49 425.1 748.22 422.63 752.12 419.61 755.7 421.12 760.51 422.62 765.25 423.81 770.07 425.02 774.88 426.39 779.65 427.42 784.5 428.72 789.28 429.85 794.12 431.5 798.81 432.87 803.57 433.83 808.45 435.24 813.2 436.57 817.97 437.88 822.75 439.29 827.5 440.06 832.42 441.91 837.05 442.9 841.92 444.19 846.46 445.72 841.97 446.95 837.15 448.07 832.31 449.14 827.47 450.6 822.72 452.11 818 453.4 813.21 454.3 808.32 456.01 803.64 456.8 798.72 458.16 793.95 459.92 789.3 460.8 784.4 462.13 779.63 463.48 774.87 464.81 770.1 466.08 765.3 467.37 760.52 468.85 755.69 465.68 752.17 463.37 748.14"/><path class="cls-1" d="M837.1,441.49l-4.92-.82-4.67-1.73-4.88-.93-4.75-1.43-4.77-1.36-4.75-1.43-4.86-1-4.73-1.48L794,429.87l-4.77-1.32-4.78-1.31-4.92-.78-4.76-1.38L770,423.82l-4.71-1.58-3.78-1.14-1.48-.6-4.45-1.41-4,2.49-3.77,2.94-4,2.67-3.76,2.95-3.8,2.9-4,2.57-3.67,3.09-3.82,2.89-3.85,2.66L724.7,447l3.67,3.09,3.91,2.75,4,2.65,3.75,3,3.94,2.71,4,2.66,3.59,3.2,4,2.74L760,468l2.68-1.16,2.61-.6L770,464.6l4.9-.88,4.74-1.48,4.74-1.44,4.84-1.1,4.83-1.13,4.81-1.21,4.76-1.38,4.78-1.33,4.68-1.66L818,452l4.74-1.41,4.81-1.22,4.82-1.13,4.72-1.54,4.85-1,4.74-1.46-4.75-1.49Zm-85.31-19.41,3.84-2.62,2.5.94-.25,0,2.38.88,1.9.56,2.87.91,4.52,2.17,3.71,1.15,1.1.39,4.65,1.85,4.62,1.93,4.77,1.53,4.58,2,4.74,1.61,4.61,2,4.68,1.76,2.31.64,2.43.86,4.58,2.08,4.9,1.58-1.4.56-3.41,1.29-1.16.42-3.59,1.1-3.89,1.55-.8.27-2.77,1.24-1.78.76L797.68,453l-.51.21-4.24,1.48-4.7,1.74-4.68,1.77-.41.2L779,460.14,774.34,462l-3.74,1.61-.91.36-2.5.77-2.26.68-.78.3-4,1.38-1,.5.53-.12-2.32,1,1.79-.87-.84.2,2-.79,4.64-1.63,4.44-2.11L774,461.6l4.6-1.72,4.55-1.85,4.63-1.62,4.62-1.68L797,453l4.65-1.57,4.53-1.92,4.52-1.93,4.71-1.46,4.32-1.89-4.27-2L810.67,441l-4.58-1.74-4.47-2.06-4.56-1.81-4.62-1.66L787.82,432l-4.66-1.55-4.54-1.87-4.51-1.94-4.7-1.47L765,423.08l-4.69-1.52-3.54-1.4,1.15.2-2.24-.84L752,422.33l-3.64,2.55ZM725.89,447l2.33,1.7-2.42-1.55-3.55-2.69Zm15,10.66,2,1.52-2.07-1.37L737,455.18l-1.62-1.26,1.67,1.15Zm7.36,5.55.75.57-.75-.54-.48-.39Zm-3.9-35.42-.91.72.88-.72.21-.12Zm-7.21,5.74h0Zm-3.83,2.57-3.59,2.9-.27.16.24-.17,3.57-2.93,3.76-2.44Zm10.79-8.54,3.65-2.24-3.51,2.38-2.87,1.92Zm-18.93,13.87,3.72-2.87,3.86-2.68,3.85-2.68,1-.78-1,.79L733,436.09l-4,2.43-3.62,3-4,2.69.24.19-.28-.18Z"/><path class="cls-1" d="M118.31,465l4.8,1.22,4.58,1.22.77.28,4.36,1.78,3.89-2.67,3.74-3,4-2.62,3.92-2.74,3.77-2.94,3.84-2.85,4-2.6,3.63-3.16,3.95-2.67-3.76-2.92-4-2.6L156,435.87l-3.93-2.71-3.89-2.8-3.8-2.91-3.83-2.86-3.73-3-4-2.75-4.45,1.77-3.71,1.29-1.62.35-4.83,1.16L113.55,425l-4.88.95L104,427.63l-4.85,1.07-4.7,1.61-4.81,1.19-4.76,1.39L80,434.06l-4.85,1-4.73,1.49-4.79,1.26-4.8,1.21-4.78,1.3-4.78,1.33-4.82,1.16-4.89,1.4,4.87,1.52,4.8,1.29,4.86,1.06,4.79,1.26,4.77,1.38,4.76,1.38,4.91.83L80,454.68l4.81,1.23,4.76,1.36,4.76,1.41,4.82,1.16,4.78,1.29,4.81,1.18,4.81,1.2Zm14.49,4.4L128,467.54l-.1,0,.54.13-.43-.17-4.59-2-.72-.24-3.9-1.58-4.76-1.56-.11,0-4.59-1.82-4.67-1.77-4.7-1.73-4.63-1.9L90.72,453l-3.55-1.44,4.3,1.22,4.5,2,4.6,1.72,4.63,1.64,4.56,1.79,4.59,1.74,4.57,1.81,4.6,1.72,4.55,1.88,3.69,1.37-3.28-.79,4.32,1.74.24-.19Zm29.78-22.3.82-.64-.8.65-1.21.86ZM136.39,465.9l-1,.76,1-.79.58-.4Zm7.84-5-3.15,2.36,3-2.54,3.57-2.35Zm22.83-16.69-4,2.64-3.77,2.81-3.67,2.93-3.75,2.82L148.19,458l2.24-1.92L147.72,458l-2.69,1.9,2.53-2.06,3.85-2.55.13-.09-1.11.94,1.09-.74,1.67-1.24-1.55,1,3.51-2.52,2.3-1.69-2.23,1.75-2,1.5,2.39-1.48,3-2.63.25-.18,1.73-1.27,2.43-1.67,4-2.63-3.92-2.71-2.63-2,2.74,1.78ZM148,430.3l3.8,2.75.38.33-.39-.27-3.95-2.55-3.65-3-.5-.38.49.36Zm-20-9.25,4.73-1.88,1.36,1.1-1.37-1L129,420.87l3.75-1.14,3.74,2.76,1.67,1.37-1.81-1.16-3.62-2.76-4.54,1.68-4.65,1.59L118.93,425l-4.6,1.71-4.46,2.09-4.65,1.58-4.56,1.81L96.1,434l-4.6,1.71-4.69,1.5-4.62,1.65-4.56,1.84L73,442.29l-4.29,2,4.39,1.66,4.55,1.81,4.11,1.75-.34-.13-4.76-1.55L72,446l-4.58-1.78,4.66-1.62,1.2-.59,3.35-1.48,1.82-.68,3-.84,4.65-1.84,4.71-1.7,4.72-1.67,4.63-1.89,4.68-1.78,2-.83,2.55-1,4.65-1.85.9-.32,3.88-1.3,4.65-1.84,4.67-1.78.83-.34-1,.31-.62.13Z"/><polygon class="cls-1" points="546.9 155.84 547.07 156.44 547.86 159.47 548.72 163.95 549.97 168.33 551.02 172.76 552.02 177.19 553.01 181.78 557.25 179.21 561.31 176.62 565.39 174.09 568.62 171.99 569.74 171.28 573.58 169.04 577.73 166.63 577.75 166.47 577.76 166.47 580.33 165.05 580.49 160.23 580.54 155.41 580.8 150.62 580.88 145.81 581.02 141.01 581.14 136.22 581.42 131.42 581.31 126.61 581.33 125.26 581.45 122.24 581.5 119.3 581.61 117.02 581.8 112.31 578.52 115.71 575.28 119.27 571.91 122.7 568.55 126.13 565.22 129.59 562.03 133.18 558.7 136.63 555.37 140.08 552.23 143.71 548.81 147.09 545.66 150.66 546.66 154.81 546.9 155.84"/><polygon class="cls-1" points="689.75 194.26 685.33 196.14 680.97 198.15 676.57 200.08 672.15 201.94 667.81 204 663.43 205.97 659.02 207.85 654.65 209.84 650.23 211.8 649.68 216.37 648.98 220.88 648.07 225.34 647.57 229.87 646.73 234.34 645.94 238.82 645.39 243.29 649.86 242.7 654.37 242 658.86 241.31 663.33 240.44 667.85 239.86 672.33 239.08 676.82 238.41 678.79 234.04 680.74 229.64 682.65 225.23 684.77 220.92 686.68 216.51 688.71 212.17 690.52 207.71 692.58 203.37 694.55 199 696.64 194.68 698.41 190.34 694.11 192.23 689.75 194.26"/><polygon class="cls-1" points="715.79 337.95 719.48 338.63 722.32 339.29 723.53 339.59 727.64 340.65 727.87 340.7 729.09 341.01 733.47 342.24 737.92 343.2 741.47 339.95 744.92 336.6 748.54 333.44 751.17 330.63 751.8 330.08 753.07 328.79 755.37 326.68 758.83 323.35 762.4 320.16 765.78 316.74 769.47 313.66 772.79 310.19 776.4 306.99 771.57 307.07 766.75 307.1 762.17 307.48 761.59 307.48 761.38 307.49 757.16 307.43 752.36 307.67 747.6 307.98 747.55 307.98 742.76 307.87 737.97 308.15 733.17 308.28 728.38 308.33 723.59 308.51 721.3 312.45 718.87 316.31 716.31 320.08 714.08 324.05 711.76 327.96 709.3 331.79 707.07 335.64 711.35 336.9 715.79 337.95"/><polygon class="cls-1" points="768.72 575.41 765.26 572.16 761.7 569.02 758.34 565.67 754.82 562.5 751.31 559.33 747.95 555.98 744.46 552.77 741.11 549.42 737.62 546.21 732.48 547.31 727.44 548.8 722.3 549.88 717.19 551.03 712.15 552.49 707 553.57 709.61 558.14 712.39 562.6 715.2 567.03 717.9 571.52 720.72 575.95 723.36 580.47 728.12 580.5 732.86 580.87 737.61 580.89 742.35 581.08 747.08 581.25 751.82 581.24 756.56 581.52 761.29 581.7 766.03 581.77 770.76 582.07 775.65 582.12 772.07 578.78 768.72 575.41"/><polygon class="cls-1" points="693.65 689.73 691.65 685.43 689.63 681.14 687.87 676.74 685.87 672.45 683.85 668.15 682.01 663.78 680.01 659.49 678.18 655.12 676.24 650.75 671.03 649.87 665.81 649.26 660.63 648.46 655.45 647.61 650.3 646.67 645.03 645.81 645.96 651.07 646.81 656.25 647.42 661.47 648.25 666.64 649.21 671.8 649.84 677.05 654.26 678.92 658.54 681 662.88 682.91 667.26 684.73 671.5 686.85 675.84 688.75 680.24 690.53 684.55 692.5 688.78 694.65 693.1 696.59 697.44 698.4 695.58 694.08 693.65 689.73"/><polygon class="cls-1" points="580.64 766.55 580.54 761.81 580.29 757.07 580.13 752.33 580.12 747.6 580.03 742.86 579.65 738.13 579.51 733.39 579.37 728.65 579.52 723.84 575 721.04 570.52 718.3 565.97 715.68 561.49 712.97 556.96 710.33 552.61 707.55 551.45 712.59 550.01 717.64 548.76 722.74 547.5 727.82 546.46 732.97 544.96 738.07 548.39 741.47 551.57 745 554.81 748.46 558.21 751.78 561.41 755.28 564.67 758.72 567.85 762.22 571.08 765.7 574.37 769.11 577.45 772.71 580.87 776.17 580.52 771.31 580.64 766.55"/><polygon class="cls-1" points="339.58 727.29 338.31 722.21 336.91 717.15 335.8 712.03 334.6 706.82 330.08 709.69 325.49 712.25 321.02 715 316.66 717.91 312.18 720.63 307.65 723.26 307.41 728 307.4 732.75 307.29 737.5 307.14 742.24 306.77 746.97 306.68 751.7 306.45 756.44 306.3 761.18 306.18 765.91 305.97 770.64 305.99 775.35 309.22 771.91 312.54 768.51 315.66 764.93 319.15 761.71 322.19 758.05 325.68 754.83 328.72 751.19 332 747.77 335.46 744.52 338.55 740.93 341.84 737.54 340.69 732.43 339.58 727.29"/><polygon class="cls-1" points="231.94 646.56 226.75 647.33 221.58 648.2 216.4 648.99 211.27 649.78 209.16 653.98 207.34 658.37 205.26 662.63 203.29 666.95 201.39 671.29 199.44 675.61 197.44 679.91 195.63 684.29 193.64 688.6 191.54 692.84 189.7 697.21 194.01 695.21 198.43 693.46 202.71 691.41 207.01 689.42 211.35 687.5 215.65 685.53 219.98 683.6 224.39 681.84 228.7 679.86 233.02 677.92 237.38 676.02 238.16 670.81 238.9 665.61 239.78 660.44 240.78 655.29 241.44 650.09 242.34 644.88 237.12 645.69 231.94 646.56"/><polygon class="cls-1" points="170.62 549.93 165.56 548.57 160.48 547.24 155.38 546.05 150.3 544.85 146.88 548.12 143.26 551.2 139.98 554.64 136.51 557.87 132.96 561.03 129.6 564.36 126 567.44 122.54 570.68 119.21 574.06 115.61 577.15 112.11 580.51 116.97 580.25 121.72 580.07 126.47 580.25 131.2 579.8 135.94 579.84 140.68 579.88 145.41 579.53 150.15 579.33 154.89 579.39 159.63 579.3 164.33 579.06 167.03 574.59 169.74 570.09 172.61 565.69 175.51 561.32 178.01 556.7 180.95 552.27 175.78 550.93 170.62 549.93"/><polygon class="cls-1" points="176.2 325.3 173.41 320.85 170.74 316.34 168.05 311.84 165.28 307.47 160.6 307.19 155.85 307.08 151.12 306.78 146.38 306.63 141.63 306.62 136.9 306.35 132.16 306.35 127.42 306.14 122.69 305.77 117.96 305.65 113.33 305.68 116.55 309.02 120.15 312.13 123.66 315.33 127.09 318.6 130.35 322.05 133.91 325.19 137.2 328.59 140.75 331.74 144.22 334.97 147.53 338.36 151.05 341.44 156.15 340.45 161.27 339.26 166.31 337.81 171.47 336.87 176.54 335.52 181.51 334.23 179 329.74 176.2 325.3"/><polygon class="cls-1" points="195.5 198.08 197.3 202.47 199.15 206.83 201.24 211.09 203.1 215.45 204.97 219.81 206.92 224.13 208.78 228.49 210.84 232.76 212.75 237.03 217.89 237.89 223.06 238.78 228.25 239.56 233.41 240.48 238.58 241.35 243.83 242.18 243.02 236.92 242.27 231.72 241.51 226.53 240.53 221.38 239.76 216.2 239.13 210.93 234.75 208.94 230.37 207.09 226.01 205.22 221.76 203.11 217.41 201.23 213.12 199.23 208.76 197.36 204.5 195.28 200.17 193.34 195.81 191.48 191.48 189.39 193.54 193.75 195.5 198.08"/><polygon class="cls-1" points="308.62 121.61 308.7 126.35 309.01 131.09 308.81 135.83 309.19 140.56 309.03 145.31 309.27 150.04 309.48 154.78 309.54 159.51 309.75 164.2 314.11 167.05 318.57 169.82 323.09 172.48 327.61 175.14 331.93 178.12 336.49 180.86 337.65 175.66 339.13 170.61 340.3 165.5 341.59 160.42 342.7 155.3 343.95 150.23 340.64 146.84 337.57 143.21 334.37 139.7 331.01 136.35 327.68 132.97 324.63 129.34 321.27 126 318.14 122.44 314.92 118.97 311.51 115.67 308.34 112.02 308.46 116.86 308.62 121.61"/><path class="cls-1" d="M643.87,528.6l1.63-4.69.48-2.83,1.53-2.65,1.1-3-1.2,1.42,1.16-2.31,0-.11.33-.63.06-.54v0l.29-.52-.13,1.16-.56,1.56.57-.68.31-2.39,1.29-2.32,1.72-4.66-.14-1.26.46-4.46,0-.5-.5,1.05L652,501V501l.19-.82.64-2.16.08-.18-.07,1.33,1.67-3.5.84-4.45L654.15,493l.24-1,.73-1.86.8-2-.48,2.64-.08.41.56-.86.21-2.72.83-2.07-.31-2.39.39-2.56L657,479l.46-3,1.87-4.74.87-4.9-.71-3-.05-.71.21-1.45-.05-.81-.13,1,0,.95-.07-1,.22-1.51,0,.53.52-3.92-.1-.41-.22-2.43.43-2.18-.33-2.21-.23,2.23,0,.26,0-.23,0-1.86.22-.6,0,.2,0-.41.86-2.37-.57,0,.06-2.24-.06-2.29-.21,0h0l-.19,0v0l-1-.08-1.22-.38,2.06,0L659,437l.29-1,0,1.08.21.66.31,2.27.11,1.89.15,0h0l.24,0h0l.57.08-.42-1.31.45-3.74-.37-5-1-2.54,0-.62.13-1.58-.36-1.37-.16-1.26.44-2.52-.44-.93.15-4-.63-4.93-.59-1.94.12,2.36.24,4.89,0,2.1-.86-1.8v-.18l.38-5-.39-2.52.1-1.32.44,1.44-.14-2.56-.77-2.9-.13-.6-.11-1.77-.58-1.34-.64-2.93,0,0-.13,1.18-.66-1.5-.13-1.74.49.78-.57-1.71-.18-2.32-1.19-3.35v.84l-.39-1.53-1.84-4.55-.43-1.18,0-2.62L652,384l.73,2.57-.3-3.43-1.8-3.06,0-1.57-.63-1-.39-3-2.21-4-.05-.43-.3-.7-.79-4.12-1.2-1.24-1.21-4.15-2.7-4.18-1.3-3.18-.1-.43-.18-.4-.15-.59-.8-1.7-.51-2-2.3-4.33-2.23-4.36-.21-.19-.18-.83-2.59-4.18-1.09-1L629,332l-.38-1.74L626,327l-.73-1.66-2.35-2.06-.42-2-2.27-2.68-.5-1.39-3-2.15-1-1-.77-1.69-.87-3.26-2.56-2.43-.86-1.13-2.37-2.09,1.47,1.68-2.17-1.68-.67-1.17-.2-.25.22.24,1.35,1.18-.37-.42L606,301.14l-.2-.24-.78-1.8-3.25-3.67-2-1.11-2.2-1.65-2.74-3.49-1.06-1.46-1.55-.76-1.94-2.7-2.87-1.08.17.21-.16-.1-.13-.16.12.05-.46-.57-1.78-2.08-1.29-1.83-.85-.44-.22-.39-.78-.46,1,.83-1.62-.84,1.11.84,1.9,2.45.05.09-2.84-1.48-1.85-2.74,1.63.84-2.11-1.57,2.75,1.58-2-1.72-1.2-.57,0-.05-1.24-1.1-2.09-2.63-4.22-2.57-1.37-.44-.73-.57-.71-1.07-1.2-.4-.16-.12-.46-.16-2.4-1.91-.85-1.23L559,260.5l-4-2.89-4.36-2-.13-.11-.87-.27-3.45-2.05-.56-.13,1.68,1.2,1.1.58-2.63-.9-1.33-1.16,1.18.28-2.34-1.67-.87-.38-.44-.38-1.13-.3-.54-.24-1.43-.82L534.56,247l-.55-.15.75.6-.34-.17-2.4-1,2,.57-.8-.65-3.36-.81-4.49-1.82-3.19-1.16-1.2-1.05-3.63-.37.09.07-2.41-.22-3.47-2.25-.92-.07-.28-.16-2.77-.52-.38-.11,4.37.84,4.38,2.28,1.39.14-2.27-1.58-4.46-1.86-4.37-.18.33.18-.68-.19h.35l-3.9-2.14h-1.2l-3.52-.71-.13-.09-1.13-.18-1.66-.42-1.87-1-4.5-.51,3.08.85-.42.06-3.08-.81-4.86-.61-2.61-.07-.91-.24,2.92-.29.66.11-4.76-1.07-1.79.39L473,229.45l-1.77.41-2.55-1.11-1.31.3.83,0,2.37,1-.5.12-1.49-.56-2.52.11-.46-.21,1.77-.42-2.51.07-1.43-.67-2.39.45h-.24l-2.21-.24-1.21-.09-2.2-.4-1.17-.58-4.14.93-.87-.19-1,.24-3.78-1.25-3.93.55,3.07.65-2.93.87,3.79,0,1.29-.18-1.29.32-4.77.24h-4.77l-4.76.37-4.79-.13-2.83-.16,2.48.11.95-.23-.57,0,2.21-.94-2.66.48-1.53.3-2.94-.24-1.22.39.83,0,.35,0-2.57.43h-.14l1.53-.49-4.12-.19-4.78,1.13-2.11.73.83.17-1.64.11.81-.28-2.1-.42-2,.8-2.77,0-4.68,1.11-.23.11,3.8.28-3.21,1.2-1.91.26-2.28,0,3.6-1.7-.65,0-4.67,1.54-1,.61.76,0-.65.2-.39,0,.28-.18-2.82.15-.32.2h-.71l-1.31.74,1.75-.58-3.64,2.28-1.45.13.28-.12,3.06-1.71-2.18.72-3.5,1.16-1.2-.07-.74.63-3.12,1.18,1.45-.2-1.83.84-2,1.05-2.65.18-1.37.78-.9.28,2.07-1.55-1.31.43-4.61,1.67-4.44,2.08-1.41,1.25-.79.37.54-.15-.13.12-.49.07.08,0-.21.06-.47.07-.27.14-1.22.34-4.59,1.73-2.85,1.51-.15,0-.14.11-1.19.63-1.69,1.21L341,254.19l-.76.5.85-.2L337,257l-1.86.7.31-.29-1.53.55-.35.07-.14.1-1.23.45-.87.91-2,1-3.74,3.25-4.35,2.32-.78,1.14-3.37,1.51-2.27,1.72-2,.82-3.15,4-4.26,2.54L304,279.4l.66-.53,4.23-2.54,1.24-.95-.14.16-.89.77,2.27-1.27-.88,1.13L307.14,278l2-1.71-.16.09-2,1.71-.82.45-.88,1,0,0-3.11,1.82h0l1.86-2-3.17,2.52-.64,1.19-.41.54.16-.07-1.14,2.12.36-.28,1.61-2.17,2-.78-3.34,3.21-3.49,3.4-2.41,1.61,1.37-1.87.45-.35.88-.7-1,.58h0l.31-.43-1.29,1-.16.09-1.31,1.43.76-.59-1,1.52-.7.46-.74.47,1.72-1.86-1.34,1-.74,1.06-3.16,2-.44,1-.22.12-.57,1.13L283.24,299l-2,2.68-.31.18-.63,1.08L278,305.26l1.44-1-.33.57-1.88,1.65.31-.78-.66.7-1.05,2.16-1,1-.66,1.79L271,314.23l-.89,2.11-1.18,1-1,2.29-1.54,1.92-.21.61h0l-.09.25,1.08-1.07-.25.57-1.33,1.94.5-1.44-.18.18.26-.42-.33.38-.32.62-2,3-3.38,3-2.45,4.28L257,337l-.72,1.38-1,2.29L253,343.36l-.4,1.44-2.2,2.72L248.32,352l-1.62,3.64-.52.77-1.75,4.58-.67,2.13-.93,1.49-.8,3,.53-.87-1.09,3,.05-.24.51-1.84-1.5,2.41-.46,2.88v0h0l-.33,2-.74,2.32.16-2.24-1.3,4.45-.43,1.69-.23.43.17-.2-.35,1.35-.39.72-.52,1.92-.3.66.12-2.05,1.27-2.4-1.37,1.65-.86,4.65-.37.82,0,2.11v.16l0,0v.71l.66-2-.05,3.65L234.15,398l-1,2.53-.07-1.17-.42,1.87.21-3,.2-2.2-.66,1.56.24,3.61-.34,1.52-.43,1.67-1.52,2.92-.26,5v3.06l-.89,2.1-.47,4.88.4,2.52-.41,2.2v2.64l-.79,2.4,0,3.18-.59,1.66,1.09,4.76-.68.22.44,0,0,2.27,0,2.29h.21l-.06-2.3,0-1,0,1,0,2.31h.05v.1l-1.07,0,.78,3.37-.08.88-.11.5-.09,4.91.37,2.54-.05,2.51.5,4.93,1,4.87.68,4.9.58,2.11-.08-.81.79,2.15.09.33.06.59,0,.82-.09-.39-.75-2.69.25,2.37.54,3.41,0,1.46.92,2.73.48,2,.63,1.35.06.19.09,3.89.77,2.62-.06,1.66,1.95,3.29.15,1.2.17.34,0,.33,1.23,4.8.74,1.8v2.3l1.21,1.48-.14-1-.06-.35.14.33.28.7.15.74-.37-.44.59,4,1.84,4.61,1.77,4.64,2.41,2.74.18.39,1,2.17.4,3.72,2.6,4.2.66.72,1.58,3.65.33.3,1.31,3.18,3.13,3.84.51.94v0l0,0,1.79,3.32,1.64,1.62.11.13.27.51.93,3,2.83,4,3.13,3.79.32.56,1.41,2.81.6.66.15.25.58.54,1.8,2,.13.25.4.27,1.09,1,2.25,3.58,1.53,1-.56-1.72,1.49,1.38.82,1.51-1.75-1.17.64,2,3.56,3.4,1,.73,0,.06.74.58,2.28,3.31L290,596.4l-2.32-3.95.09.07v0L290,596.4h0l0,.08.05.09h0l3.34,3.56,4,2.85,3,2.56-1.13-2.2.71.87,1.13,1.93h0l-.7-.6,1.11,2.15,3.35,1.52,1,.91.7.61,1.05,1,1.59,2.07,1.79.67,2.22,1.74,2.56,2.87,1.22.31,0,0,0,0h0l.15.19.43.29,2.29,2,2.84,1.84,2.22,2,4.28,2.44,4.14,2.65,4.33,2.35,4.33,2.32,1.61.79L341,634.41l-1.69-1.09,2.8.49-.56-.38L337,631.85l-.15-.1-.54-.37-1.57-1.75,3.84,2.07,4.34,2.24.18.18-.19-.17-.84-.14,2.28,1.52,2.16,2.09-.46-.12.51.25,2,.44-1.55-.43,3.82.59,2.26,1.55-.65-.27,2.95,2.4,1.66.3L355,640.67l.83.18L352,638.42l4.16,1.72,4.42,2.06,4.27,1.91-3-.9-1.07-.65.57.5-1-.31-3.29-.62,1.42,1,4.45,2,1,.12.42.38,2.53.07,2,1.67,3.59,1,1,.49,4.53,1.64h.54l4.18,1,2.35.31-1.15-.64,2.72.25,1.46.88-.57-.17-2.46-.32,1.27.7,2.42.19,2.23,1.35.57,0-2.16-1.28.26,0-.47-.14-1.55-.91-3.11-1,3.2.63,2.34,1.43-.41,0,.72.22,1.62,1,.09,0-.53,0,.37.21,2.55.65,2,1.15,2-.26,2.84.61,1.65,0h0l2.35.83,1-.14,3.28,1-.34-.22,1.24.36-.36,0-.54-.17,1.08.71,4.94-.58,4.72.85,3.3-.09,1.47.68,1.83-.2,2.94.88,4.85-1,2.55.2,2.22.73,1.35-.28,3.45,1,3.57-.41-3.57-.6-2.64-.14.77-.16,1.87-.22.28,0,1.06.2-.53-.16,4,.35,4.74-1.19,1.57.49-.45.08.95.08,1.39.44-.19.07.21-.06,1.4.44,1.72-.51,3.43.3,4.85-.7.65-.13,3.7-.35.63-.21,2-.43,2.8.19,3.37-1.07,1.4-.12,1.81-.41,2.26-.21.07,0,4.39-1.41-2,.53,2.12-.79h.52l-.47.22-.13,0,1-.25h0l4.05,0,.57-.4.31,0,2.28-1.32,2.19-.9,1.88-.62,1.73-.42,4.84-.61,1.73-1.46,2.59-1,1.25-.1,1.13-.68,2.26-.24,2.54-1.61-.49.06.72-.2-.23.14,3.44-.37,2.78-1.21.29-.07.36-.21,1.06-.47,1.11-.86,1.14-.7.63-.19,1.91-1.17,2.6-.76.12-.1,1.41-.27,4.31-2.32.76-.65-2.28,1-2.75,1,.9-.77,1.78-.37,1.24-1,1.54-.21-.43.37,1-.45,1.37-.19.65-.57-.56.06,1.84-1.18L547,634.93l.7-.08,1.59-1.69.36-.24-.18.05.44-.46.34-.11,1.32-1.34,2.44-1.93,1-.55.28-.05-.18.21.74-.3,3.14-.52,1.14-1.25,3.08-1.27,2.92-2.35.49-.18.67-.21.17-.17.36-.26-.18.08,2.7-2.74.74-.36-1.95,2.08,2.13-1.54,4.13-2.68,2.09-2.76-1.07.71,1.31-1-.24.31,2.46-1.62L584,610l3.6-3.08-.91.72-2.47,1.57.23-.35L583,610l-.42.27-1.8,1.19-1.24.68-.08.06,2.26-3,4.09-2.34-1.29,1.92,2-1.52,1.54-2.21,1.76-1.46,1.3-1.36,1-.54v0l1.74-.91,2.42-3,.89-.61.61-1,2.82-2.52,1.27-.54,3.32-3.6,2-2.62.26-.26.06-.15.54-.69.2-.11,3.22-3.69.08-.17,2-2.57-1.68,1.93.64-1.33-2.07,1.26,2.13-3,2.82-3.74-.81,2.34.07,0-.48,1.23.41-1.18-.93.73-1.14,2.4,1.11-.68-.07.08.09-.1.13-.07.06-.19.61-.79.73-1.84,2.45-1.92,1.79-4.12,1.38-1.48,1.9-1.42,2.93-4,2.66-4.14,2-4.22-.35.43.41-.56-.06.13.87-1.06.11-.45,1.91-4,2.7-4.11.07-.3,1.89-3,1.81-4.58,1.12-2.78,1-1.68v-.11l-.55.76.31-.76.36-1-.12,1,.55-.75.2-2,.13-.35Zm-28.76-215,.26.3,0,.08-.77-.9Zm31.5,55.86.65,3.05-1.15-2.87-1-4.44.27.44.11.27.23.63Zm12.84,77.13-.06.49-4.71.62-2.27-.53,2.2-.17,4.84-.44Zm-15.15,1.28,1.57-.14-1.53.55-1.81-.28Zm12.4,33.07-.12,1.65-.05-.38,0,.29-.06-1,.09.7.14-1.29,0-.24ZM660,444.25l0,1.31,0-1.31v0Zm-.22,0-.05,2.26h0l.06-2.26v0Zm-.56-15.48v0l-.13-.39Zm-7-40.42.63,4.92.44.69.59,3.67-1.2-4.32-1-4.82-.72-3.24ZM648.49,374l.56,2-1.11-1.82-.16-.41-.35-2.61Zm-20.93-44.37.45,1.11-.74-.93-.29-.66Zm-39.31-45.45,1.06,1.32-.13-.07-1.29-1.58ZM561,262.42l-.08-.08.13.1-.05,0,2.33,2.45-1.08-.38-2.59-2.6Zm15.3,10.48-.25-.22.07,0Zm-30.56-18.84h0l-4.18-1.92,2.74.65Zm-20.88-9.3,1,.17,1.95,1.39,1.2.34-1.28-.15-4.41-1.81-1.81-1.65,1.79.33ZM541,251.9l-4.34-1.46-2.14-1.86,2.48,1.15ZM514.6,240.75l.14.06h-.16l-.64-.38Zm-26.25-7.13-1.53.23-2.68-1,2.83.18ZM468,230.44h.68l-.7.16-1-.48Zm-14.25-2.14,1.62.12.41.06,1.77.89h-3.84l-2.49-.55Zm-7.17.48h.43l-.17,0Zm-35.7,3.15.19-.05-.19.06-2.5.21,1.87-.31.07,0ZM397.7,234.4l-.81.33h-.67Zm-8.18,1-.14,0,.06,0ZM383.63,238l-.61.31-.47,0Zm-8.89,2.7-.76.64-1.13.08Zm-8.52,2.58-.81.46.55-.41Zm-5.72,2.87,3.14-1.43-3.06,1.64-1,.15Zm-43.74,24.45,2.15-1.54.59-.29-1.14,1.68-2.92,1.08Zm34-21.26.53-.08-.09.05-.63.21Zm1.77-.69-.8.15,2.19-.85Zm-67.69,50.12.85-.72-.79,1.56-1.17.66Zm.68.34-.09.2-.07,0,0-.06Zm-7.18,7,.24-.21-.15.27-2.22,3,.62-1.54Zm-10.44,54.7,2.43-4.19.74-5,2.36-4.25,2.25-4.31,3.83-3.35,2-4.42,1.62-4.75,3.5-3.49,3.84-3.16,1.87-4.67,4-3,2.63-4.1,2.55-4.23,3.49-3.38,3.49-3.38,3.06-3.83,4.51-2.26,3.52-3.32,4.11-2.61,2.88-4.18,4.47-2.11,3.53-3.4L338.9,277l3.9-2.91,4-2.8,4.23-2.39,4.24-2.4,4.47-1.92,4.28-2.31,5.07-.53,4-3,4.39-2.13,4.54-1.77,4.93-.56,4.82-.73,4.74-1,4.51-1.89,4.81-.64,4.77-.76,4.64-1.6,4.83-.41,4.84-.22,4.79-.84,4.86.31,4.79-1.73,4.87-.16,4.82,1.87,4.87-.86,4.83.39,4.74,1.32,4.84.21,4.92-.24,4.76,1,4.9.24,4.56,1.87,4.69,1.24,4.62,1.45,4.38,2.19,5.19-.3,4.39,2.16,4.36,2.17,4.16,2.59,4.69,1.33,4.93.91,3.77,3.3,4.78,1.36,3.68,3.33,4.86,1.34,3,4.27,4.74,1.62,3.09,4,4.4,2.19,3.73,3.08,3.72,3.08,4.43,2.31,2.95,3.95,3.38,3.47,3.6,3.26,3,3.78,3.77,3.13,2.45,4.28,3.65,3.26,3,3.82,3.14,3.72,2.85,3.93,2.13,4.41,2,4.45,2.48,4.14,4,3.33,2.18,4.35,1.53,4.67,1.34,4.72,2.7,4.09,1.56,4.6,2.72,4.15-.24,5.23,1.77,4.5,2.35,4.34.71,4.82,1.17,4.69,1.54,4.61,1.2,4.71.67,4.8.71,4.8L637,421l1.71,4.69.63,4.81-.85,4.9.17,2.67L636,437l-4.82-.68-4.76-1-5.08.78-4.48-2.54-5.09.84L607,433.26l-4.78-.92-4.73-1.18-4.89-.26L588,428.71l-5,.29-4.75-1.12-4.76-1-4.56-2.1-4.9-.28-5,.07-4.87-.45-4.63-1.73L545,420.76l-5,.12-4.86-.52-4.73-1.18-4.7-1.37-4.89-.3-4.69-1.41-4.76-1.05-4.95.08-4.59-2-4.76-1-4.87-.46-4.68-1.5-4.86-.49-5,.07-4.88-.38-4.44-2.78-4.93-.12-4.82-.73-4.93-.14-4.5-2.31-5-.49-4.76,1.53-4.75,1-4.82.64-4.8.79-4.64,1.7-4.78.9-4.84.57-5-.27L401,410l-4.76,1-4.78.92-4.59,2-4.69,1.41-4.81.71-5.09-.79-4.6,1.93-4.84.52-4.77,1-5-.16-4.44,2.84-4.92.12-4.81.75-4.62,1.84-5-.32-4.91.2-4.67,1.52L315,426.76l-5-.12-4.66,1.58-4.69,1.41-4.79.86-4.82.64-4.73,1.24-5.06-.65-4.6,1.92L271.93,435l-5-.28-4.83.65-4.81.81-4.64,1.67-3.55,0,.37-2.41.46-4.83.59-4.8.14-4.85.67-4.79.92-4.75.89-4.76-.07-4.95,2-4.52.7-4.82,2.09-4.44.46-4.92,2-4.44,1.43-4.63,1.06-4.79,1.72-4.55Zm3.92,212.86-.95-1.48h0l2.28,1.94,2.46,3.58-2.6-1.79Zm-5.11-7.89.59.55.5,1.11ZM248.26,533l-.14-.63-.19-.23-.26-.67-2-4.45-1.34-2.48-.21-1.23.05.07,1.92,4.53,2,4.45.17.74ZM229.7,437l-.62,3.21-.57-3.17.54-3.57Zm-1.07,5,0,1,0-1Zm5,43.6-.06,2.42-.12-2.39-.86-3.2Zm.22,5.78,1.79,3.83.13,2.33-.51-2.85-1.4-3h0Zm3.08,12.33-.15-.31-.05-.38.21.72Zm7.15-55.59-1.14-.38,1.16.08,1.28.12Zm8-101.31,1.49-2.57.13-.15L252,347.17l-.32.94Zm10.49-19L261,329.75l-1.44,2.57.41-1.91Zm-13.37,23.38L250,350l-.53,1.33-.06.29,2.3-3.46-1.22,3.65-1.56,2,.48-2.23-.42.62-.74,1.09Zm-3.89,9,.4-.51-.22.59-.26.41Zm-2.62,9.56,1.83-4.56.39-2.48.77-1.29.27-2.05.62-.79L246,360.5l-1.41,4.74-1.76,4.58-2.32,4.4-.29,1,.23-1,.56-2.45ZM228.24,432l.53-2v2.05l.11.59-.77,2.15Zm.16,27.86.2,1.34.06.52-.2-.51Zm1.5,11,.06-.71.16,1,.33,2.87Zm9.75,41.42-.45-2.83-.26-.69v1.65l-.57-1.49-.63-2.62,1.17,2.36-.84-2.23,1.49,2.91.52,4.06ZM256.49,550l-.63-1.24,1.08,1,.72,2.36Zm22.56,31.82-.55-.7-.1-.32-.29-.19-.9-1.16,2.09,2.17.64,1.19Zm18.35,19.84.25.16-3.3-2.64-.19-.11.56.66L291,597.45l-.76-.79.5.3.29.47,1.89.87,1.26.78-.27-.32,1.84.85,2.65,2.69-.73-.47.52.42,0,0Zm26.59,23-.28-.38.39.24,3.82,1.82-2-1.93-2.19-1.59,2.62.93,3.61,3.41,3.52,1.83-1.44-.42-1.4-.77-2.05-1.16-.63-.3.11.11Zm41,19.57,2.07,1.3-1-.35Zm42.44,12.53.37.11-.16,0Zm3.92,1.42,1.75-.32,2,.09H415Zm13.33,1.11-1.07-.3.84,0-.18,0,.23,0h-.05l.26.07h.1l.24,0,.35,0,1.42.42Zm4.93-.48-3.14.14,3.41-.3,2.22.18Zm54.07-2.93,2.19-.31-1.1.53Zm-15.16,2.71-2.78.13-.21,0,2.54-.2,1,.07ZM492.45,654l-2.86.41,1.91-.7,3.71-.2-1.16.53Zm26.16-7.53-1.75.79-2.35.21-.65.29.58-.48,4.58-1.06Zm19.65-8.56-2.74,1,1.11-.92,2.2-.46ZM549.13,633l-2.17.49-1.88,1.62-1.47.16,1.81-1.49,4.25-1.26Zm3.06-2.65,1.58-1.61.84-.14ZM564,624.07l-1,.42.84-.6-1.33.49-.64.37.51-.57,2.34-.73-.12.11-.73.31,0,0,.67-.25Zm34.13-28.46.76-1.2-.14.06.75-1-.61,1,.83-.35Zm2.2-3,1.45-1.06-.11.19Zm3.72-2.4-.41.26.32-.33,2.13-2.11Zm3.49-3.76.17-.45-1.88,1,.72-1.11,2.22-2.62L607.74,586l.32-.17Zm3.72-41.78-1.37,4.82-3.72,3.36-1.38,4.9-2.58,4.12-3,3.83L595.53,569l-3.21,3.63-2.48,4.25-3.55,3.32-3.92,3L580,587.6l-4,2.78-2.82,4.11-4.63,2.07-3.93,2.83L561,602.66l-4,2.73-3.21,3.83L549.2,611,545.32,614l-4.56,1.79L537.05,619l-4.16,2.5-4,2.77-5,.78L520,628.37l-4.51,1.85h-5.19l-4.14,2.8-4.91.57-4.47,1.92-4.91.34-4.63,1.4-4.73.94-4.42,2.68-4.92,0-4.86.21-4.89-.31L458.77,643l-4.94-1.38-4.78,1.47-4.85,0-4.87.5-4.85-.4-4.81-.78-4.75-1.29-4.8-.43-4.94.35-4.62-1.76-5,.46-4.52-2-4.75-1L391.73,635l-5-.08L382,633.58l-4.54-1.75-4.1-2.87-5-.68L364.11,626l-3.8-3.28-4.83-1.17-4.56-1.78-4.26-2.36-3.8-3.12-4-2.71-3.33-3.71L330.88,606l-3.44-3.47L323.28,600l-4.38-2.33-3.41-3.48-3.19-3.7-4.07-2.77-3-3.85-3.66-3.21-2.21-4.53L295,573.45l-3.1-3.75-2.88-3.92-2.43-4.24-2.92-3.87-1.56-4.78-2.69-4-4-3.26-2.36-4.25L271,537l-1.62-4.61L267.25,528,265,523.7l-1.09-4.79-2.2-4.34-2.18-4.37-1.92-4.49.57-5.23L256.49,496l-1.87-4.52-.23-4.9-2.31-4.48.67-5-1.23-4.7-1.28-4.72.28-4.89L249,458l-.12-4.86.77-5.77-.38.05-.1-2.59,3.67.79,4.79,1,4.8.94,4.71,1.4,4.75,1.24,4.75,1.17,5-.27,4.86.6,4.77,1.13,4.68,1.58,4.94.17,4.63,1.91,5.09-.66,4.78,1,4.57,2.2,4.81.92,4.87.57,4.76,1.18,4.84.74,4.92.24,4.67,1.69,5.14-1,4.74,1.34,4.86.59,4.62,2,5-.06,4.72,1.39,4.66,1.73,5-.16,4.8.91,4.85.73,4.66,1.73,5.08-.62,4.74,1.32,4.69,1.63,4.94.18,4.66,1.79,5.05-.42,4.85.68,4.56,2.36,5,.95,4.82-1.38,4.65-1.44,4.66-1.39,5,.58,4.62-1.66,4.92,0,4.64-1.56,4.6-1.74,5.06.85,4.55-2.08,4.79-.71,4.79-.71,4.74-1,4.73-1,4.94.07,4.57-1.92h4.92l4.58-1.84,4.73-1.08,5,.71,4.47-2.53,5.08.93,4.45-2.63,4.9-.11,4.75-.91,4.78-.81,4.91-.07,4.62-1.66,4.78-.79,4.59-1.81,4.9-.09,4.94.13,4.68-1.34,4.82-.56,4.8-.67,4.57-1.93,5,.27,4.43-2.72,5.06.7,4.83-.45,3.12-.8,0,1.05-.35-.05,1,5.7-1,4.81-1.54,4.72-.26,4.82,1,5-.52,4.84-1,4.76-1.22,4.71-2.46,4.41-.09,5-1.12,4.73-2.11,4.42L628.23,510,627,514.7l-2.64,4.18-1.91,4.43-.85,4.92-3,4-2.52,4.14-1.74,4.54Zm14,18-.23.36,0-.19Zm-2.54,3.79,2.29-3.4-2,3.17Zm3.61-8.4-.57,1.67.4-1.78,2.63-4.1,2.62-3.28-1.28,4.07Zm11.07-17.38-.91,1.66.36-1.64.82-1.43.94-1.2Zm4.32-8.77-1.7,3.26-.72,1-.3.53,1-4.44,2-1.91,0,.23Z"/><polygon class="cls-1" points="277.67 305.5 277.57 305.74 278.03 305.26 277.67 305.5"/><polygon class="cls-1" points="298.39 286.49 298.81 285.7 296.21 287.77 298.39 286.49"/><polygon class="cls-1" points="487.94 232.27 488.33 232.31 487.19 232 483.11 231.31 483.14 231.32 487.94 232.27"/><polygon class="cls-1" points="368.83 241.13 368.82 241.15 368.91 241.12 368.83 241.13"/><polygon class="cls-1" points="431.87 228.47 429.75 227.72 427.35 228.73 429.52 228.35 431.87 228.47"/><polygon class="cls-1" points="340.26 254.69 337.73 255.3 335.49 257.39 336.92 256.87 340.26 254.69"/><polygon class="cls-1" points="653.29 389.54 653.29 388.75 652.69 386.61 652.82 388.21 653.29 389.54"/><polygon class="cls-1" points="374.05 239.77 372.16 240.04 368.91 241.12 373.52 239.97 374.05 239.77"/><polygon class="cls-1" points="587.76 606.81 587.64 606.92 590.59 604.57 592.1 601.79 591.11 603.21 587.76 606.81"/><polygon class="cls-1" points="238.91 508.71 238.94 508.81 238.94 508.79 238.91 508.71"/><polygon class="cls-1" points="449.87 660.47 453.76 659.45 454.85 659.25 453.92 659.17 449.08 660.36 445.54 659.67 448.32 660.49 447.77 660.56 449 660.76 453.83 661.06 457 659.83 454 660.81 449.87 660.47"/><polygon class="cls-1" points="348.56 637.99 349.9 638.36 352.44 639.43 351.47 638.64 348.56 637.99"/><polygon class="cls-1" points="568.49 621.94 569.11 621.29 567.8 622.23 568.49 621.94"/><polygon class="cls-1" points="345.1 637.04 346.04 637.3 343.74 636.18 345.1 637.04"/><polygon class="cls-1" points="299.79 283.64 298.14 284.3 295.53 287.92 297.95 286.03 299.79 283.64"/><polygon class="cls-1" points="438.18 229.4 439.43 229.67 440.41 229.38 439.33 229.39 438.18 229.4"/><polygon class="cls-1" points="655.72 397.68 655.23 396.92 655.66 398.2 655.72 397.68"/><polygon class="cls-1" points="240.06 372.83 239.24 373.8 239.16 374.92 239.23 374.67 240.06 372.83"/><polygon class="cls-1" points="233.01 397.75 233.11 399.36 233.33 398.37 234.69 393.68 234.65 391.55 234.5 392.01 234.62 390.88 233.34 393.35 233.09 396.08 233.86 394.26 233.01 397.75"/><polygon class="cls-1" points="432.63 229.18 434.47 229.43 434.58 229.43 434.65 229.46 434.73 229.43 438.18 229.4 436.21 228.97 439.39 227.99 440.27 227.86 439.3 227.66 434.43 228.61 431.87 228.47 433.32 228.99 432.63 229.18"/><polygon class="cls-1" points="432.63 229.18 429.55 228.75 425.71 229.7 429.89 229.94 432.63 229.18"/><polygon class="cls-1" points="360.27 642.24 360.79 642.56 360.52 642.31 360.27 642.24"/><polygon class="cls-1" points="360.27 642.24 359.16 641.55 355.82 640.85 355.83 640.85 360.27 642.24"/><polygon class="cls-1" points="550.27 632.5 549.62 632.92 551.93 632.4 555.09 628.74 554.01 629.19 550.27 632.5"/></svg>